<?xml version="1.0" standalone="no"?>
<!DOCTYPE svg PUBLIC "-//W3C//DTD SVG 1.1//EN" "http://www.w3.org/Graphics/SVG/1.1/DTD/svg11.dtd" >
<svg xmlns="http://www.w3.org/2000/svg" xmlns:xlink="http://www.w3.org/1999/xlink" version="1.1">
<metadata></metadata>
<defs>
<font id="corporate_sregular" horiz-adv-x="1024" >
<font-face units-per-em="2048" ascent="1638" descent="-410" />
<missing-glyph horiz-adv-x="512" />
<glyph unicode="&#xfb01;" horiz-adv-x="1034" d="M33 854v117h137v61q0 53 2 91t6 66t11.5 48t19.5 39q31 55 89 87t128 32q74 0 156 -31v-133q-76 37 -136 37q-90 0 -116 -84q-8 -23 -11.5 -56.5t-3.5 -91.5v-65h242v-117h-235v-854h-152v854h-137zM702 1278q0 47 30 76.5t77 29.5q45 0 73.5 -29.5t28.5 -74.5 t-29.5 -74.5t-74.5 -29.5t-75 28.5t-30 73.5zM731 0v971h152v-971h-152z" />
<glyph unicode="&#xfb02;" horiz-adv-x="1034" d="M33 854v117h137v61q0 53 2 91t6 66t11.5 48t19.5 39q31 55 89 87t128 32q74 0 156 -31v-133q-76 37 -136 37q-90 0 -116 -84q-8 -23 -11.5 -56.5t-3.5 -91.5v-65h242v-117h-235v-854h-152v854h-137zM731 0v1372h152v-1372h-152z" />
<glyph unicode="&#xfb03;" horiz-adv-x="1615" d="M33 854v117h137v61q0 53 2 91t6 66t11.5 48t19.5 39q29 55 88 87t129 32q37 0 74 -7.5t82 -23.5v-133q-41 20 -73 28.5t-63 8.5q-90 0 -116 -84q-8 -23 -11.5 -56.5t-3.5 -91.5v-65h437v61q0 53 2 90t6 64.5t11 48t20 41.5q29 55 88 87t129 32q37 0 72.5 -7.5t84.5 -23.5 v-133q-47 23 -76.5 30t-60.5 7q-90 0 -117 -84q-8 -23 -11 -56.5t-3 -91.5v-65h242v-117h-236v-854h-151v854h-430v-854h-152v854h-137zM1284 1278q0 47 30 76.5t77 29.5q45 0 73.5 -29.5t28.5 -74.5t-29.5 -74.5t-74.5 -29.5t-75 29.5t-30 72.5zM1313 0v971h151v-971h-151z " />
<glyph unicode="&#xfb04;" horiz-adv-x="1615" d="M33 854v117h137v61q0 53 2 91t6 66t11.5 48t19.5 39q29 55 88 87t129 32q37 0 74 -7.5t82 -23.5v-133q-41 20 -73 28.5t-63 8.5q-90 0 -116 -84q-8 -23 -11.5 -56.5t-3.5 -91.5v-65h437v61q0 53 2 90t6 64.5t11 48t20 41.5q29 55 88 87t129 32q37 0 72.5 -7.5t84.5 -23.5 v-133q-47 23 -76.5 30t-60.5 7q-90 0 -117 -84q-8 -23 -11 -56.5t-3 -91.5v-65h242v-117h-236v-854h-151v854h-430v-854h-152v854h-137zM1313 0v1372h151v-1372h-151z" />
<glyph horiz-adv-x="0" />
<glyph unicode="&#xd;" horiz-adv-x="512" />
<glyph unicode=" "  horiz-adv-x="512" />
<glyph unicode="&#x09;" horiz-adv-x="512" />
<glyph unicode="&#xa0;" horiz-adv-x="512" />
<glyph unicode="!" horiz-adv-x="509" d="M137 96q0 49 36 84t83 35q49 0 83 -35t34 -84q0 -51 -33 -83.5t-84 -32.5q-49 0 -84 33.5t-35 82.5zM178 1339h156l-25 -956h-114z" />
<glyph unicode="&#x22;" horiz-adv-x="720" d="M143 1366h154l-25 -549h-104zM426 1366h152l-25 -549h-104z" />
<glyph unicode="#" horiz-adv-x="1228" d="M66 434l18 113h233l48 297h-234l16 112h234l65 410h129l-65 -410h305l64 410h131l-66 -410h236l-19 -112h-235l-47 -297h235l-18 -113h-234l-69 -434h-129l69 434h-305l-70 -434h-129l70 434h-233zM446 547h304l47 297h-303z" />
<glyph unicode="$" horiz-adv-x="1091" d="M92 391h148q8 -125 75.5 -196.5t190.5 -81.5v530q-59 23 -96 36t-61.5 23.5t-40 18.5t-34.5 20q-150 96 -149 279q0 78 26.5 142.5t77 112.5t121 77.5t156.5 36.5v133h82v-133q80 -6 146.5 -32t113.5 -69t74.5 -101.5t29.5 -125.5h-153q-6 78 -62.5 130t-148.5 62v-477 q80 -29 144.5 -57.5t101.5 -52.5q166 -106 165 -301q0 -82 -28.5 -150t-82.5 -118t-130 -80.5t-170 -36.5v-150h-82v147q-197 12 -303.5 120t-110.5 294zM274 1032q0 -115 105 -174q18 -10 40.5 -19.5t86.5 -33.5v448q-111 -16 -171.5 -72.5t-60.5 -148.5zM588 111 q119 12 187.5 75.5t68.5 161.5q0 59 -28 109.5t-75 85.5q-23 16 -52.5 29.5t-100.5 39.5v-501z" />
<glyph unicode="%" horiz-adv-x="1173" d="M49 1049q0 70 19.5 130t55.5 104t83 68.5t102 24.5t102.5 -25.5t82 -69.5t54 -103.5t19.5 -128.5q0 -70 -19.5 -129.5t-55 -103.5t-83 -69.5t-102.5 -25.5t-102 25.5t-82 69.5t-54.5 103.5t-19.5 129.5zM123 0l801 1366h127l-801 -1366h-127zM166 1049q0 -98 40 -162 t101 -64t102.5 63.5t41.5 162.5q0 96 -41.5 160.5t-100.5 64.5q-63 0 -103 -63.5t-40 -161.5zM606 317q0 70 19.5 130.5t55.5 104.5t84 68.5t103 24.5q53 0 100.5 -25.5t82 -69.5t54 -103.5t19.5 -129.5t-19.5 -130t-55 -104t-82.5 -68.5t-103 -24.5q-55 0 -102 24.5 t-82 68.5t-54.5 104.5t-19.5 129.5zM723 317q0 -98 40 -161.5t101 -63.5q63 0 103.5 63.5t40.5 161.5q0 96 -41.5 161t-100.5 65q-61 0 -102 -63.5t-41 -162.5z" />
<glyph unicode="&#x26;" horiz-adv-x="1212" d="M88 354q0 57 14.5 107.5t46 98.5t85 98.5t128.5 109.5q-51 66 -81.5 111t-47 78.5t-22.5 62.5t-6 63q0 59 21.5 107.5t61.5 84.5t95 55.5t121 19.5q129 0 201.5 -69t72.5 -187q0 -49 -11 -91t-38 -84t-69 -85t-103 -93l287 -391q25 47 37 112.5t12 166.5h123v-43 q0 -115 -20.5 -196t-69.5 -154l176 -236h-166l-94 129q-72 -76 -150 -108.5t-190 -32.5q-92 0 -169 26.5t-131.5 73.5t-84 115.5t-29.5 150.5zM233 350q0 -51 20.5 -96t56.5 -77t86 -50t110 -18q156 0 256 124l-316 422q-51 -39 -76.5 -60.5t-50.5 -45.5 q-41 -41 -63.5 -93.5t-22.5 -105.5zM344 1094q0 -23 4 -43.5t16.5 -45t34 -55t56.5 -78.5l20 -30q47 37 80 69.5t53.5 62.5t28.5 60.5t8 65.5q0 59 -39 96t-104 37q-68 0 -113 -40t-45 -99z" />
<glyph unicode="'" horiz-adv-x="512" d="M180 1366h154l-25 -549h-104z" />
<glyph unicode="(" horiz-adv-x="575" d="M147 483q0 293 62.5 519.5t185.5 373.5h111q-109 -147 -163 -371.5t-54 -517.5q0 -299 53 -520t164 -377h-111q-248 307 -248 893z" />
<glyph unicode=")" horiz-adv-x="575" d="M68 -410q111 158 164 375t53 516q0 600 -217 895h110q123 -145 185.5 -370.5t62.5 -522.5q0 -588 -248 -893h-110z" />
<glyph unicode="*" d="M195 1065l28 92l240 -78v252h96v-252l240 78l28 -92l-237 -78l147 -203l-80 -57l-145 203l-147 -203l-80 57l147 203z" />
<glyph unicode="+" horiz-adv-x="1091" d="M109 635v106h380v396h113v-396h381v-106h-381v-397h-113v397h-380z" />
<glyph unicode="," horiz-adv-x="489" d="M70 -299q66 66 111.5 149.5t54.5 147.5h-17q-45 0 -77.5 34t-32.5 79q0 49 35.5 83.5t88.5 34.5q59 0 95.5 -44t36.5 -115q0 -86 -39 -172t-127 -197h-129z" />
<glyph unicode="-" horiz-adv-x="561" d="M0 459v112h561v-112h-561z" />
<glyph unicode="." horiz-adv-x="522" d="M143 96q0 49 35 84t84 35t83 -35t34 -84q0 -51 -33 -83.5t-84 -32.5q-49 0 -84 33.5t-35 82.5z" />
<glyph unicode="/" horiz-adv-x="1167" d="M111 -305l802 1671h144l-803 -1671h-143z" />
<glyph unicode="0" horiz-adv-x="1091" d="M109 664q0 328 115.5 508t326.5 180q100 0 180 -47.5t136.5 -136.5t86 -215t29.5 -285q0 -160 -29.5 -288t-87 -216t-138.5 -135t-183 -47q-100 0 -181 47t-138.5 135t-87 215t-29.5 285zM262 664q0 -264 74 -411t209 -147t209.5 146.5t74.5 415.5q0 266 -72.5 412.5 t-207.5 146.5q-139 0 -213 -144.5t-74 -418.5z" />
<glyph unicode="1" horiz-adv-x="1091" d="M352 1038v97q129 4 194.5 52t88.5 154h102v-1341h-145v1038h-240z" />
<glyph unicode="2" horiz-adv-x="1091" d="M154 0v117q6 8 58 76.5t153 197.5q98 127 164.5 215t110.5 149.5t68.5 100.5t37 67.5t14.5 51t2 51.5q0 90 -58.5 141.5t-160.5 51.5q-227 0 -246 -273h-135q4 199 103.5 302.5t285.5 103.5q166 0 265 -88t99 -236q0 -45 -8 -84t-29.5 -84t-61.5 -103.5t-105 -142.5 l-369 -481h594v-133h-782z" />
<glyph unicode="3" horiz-adv-x="1091" d="M127 358v21h135q4 -129 75 -197.5t200 -68.5t203.5 72.5t74.5 199.5q0 86 -42 149.5t-118 92.5q-27 10 -68.5 15t-88.5 5h-19.5t-29.5 -2v131l53 -2q129 0 198.5 61.5t69.5 174.5q0 100 -59.5 155.5t-163.5 55.5q-209 0 -240 -230h-133q10 174 108.5 267.5t274.5 93.5 q168 0 267.5 -89t99.5 -243q0 -207 -201 -295q244 -84 244 -334q0 -92 -31 -168t-86 -130t-133 -82.5t-174 -28.5q-125 0 -219.5 45t-145.5 129q-18 31 -33.5 91t-17.5 111z" />
<glyph unicode="4" horiz-adv-x="1091" d="M84 324v114l541 903h153v-888h232v-129h-230v-336h-149v336h-547zM229 453h408l2 696z" />
<glyph unicode="5" horiz-adv-x="1091" d="M143 322h140q16 -102 76.5 -156.5t158.5 -54.5q61 0 112.5 25.5t88.5 71.5t57.5 110.5t20.5 140.5q0 141 -70 228t-184 87q-80 0 -136.5 -33.5t-101.5 -111.5l-133 14l94 688h613l-19 -131h-475l-55 -391q51 51 104 72.5t125 21.5q88 0 161 -31.5t124 -88t78.5 -137.5 t27.5 -179q0 -176 -96 -313q-123 -172 -332 -172q-82 0 -149.5 23.5t-116.5 68.5t-77.5 107.5t-35.5 140.5z" />
<glyph unicode="6" horiz-adv-x="1091" d="M141 446q0 98 29 202t90.5 215.5t154.5 235.5t222 263h166q-53 -57 -106.5 -121.5t-102.5 -130.5t-92 -129t-78 -121q41 20 76 28.5t75 8.5q82 0 151 -33t118 -93t76.5 -143t27.5 -182q0 -104 -28.5 -189t-81 -146.5t-125 -95t-160.5 -33.5q-90 0 -166 34.5t-130 96 t-85 146.5t-31 187zM295 442q0 -74 19.5 -134t53 -105t80 -69.5t101.5 -24.5q111 0 178.5 91t67.5 244q0 147 -68.5 238.5t-181.5 91.5q-55 0 -101.5 -24.5t-79 -67.5t-51 -104.5t-18.5 -135.5z" />
<glyph unicode="7" horiz-adv-x="1091" d="M131 1192v139h830v-123l-652 -1208h-166l645 1192h-657z" />
<glyph unicode="8" horiz-adv-x="1091" d="M139 369q0 227 195 331q-160 86 -160 287q0 78 28.5 144.5t78 115.5t118 77t148.5 28t147.5 -28t117.5 -77t78 -115.5t28 -144.5q0 -203 -160 -287q197 -106 196 -331q0 -84 -30.5 -156t-85 -123t-129 -79.5t-162.5 -28.5t-164 28.5t-129 79.5t-84 123t-31 156zM293 371 q0 -117 69.5 -191t184.5 -74q113 0 183.5 74t70.5 191t-70.5 191.5t-181.5 74.5q-115 0 -185.5 -74t-70.5 -192zM328 991q0 -106 60.5 -169.5t158.5 -63.5t158.5 64.5t60.5 170.5q0 104 -59.5 169t-157.5 65q-102 0 -161.5 -63.5t-59.5 -172.5z" />
<glyph unicode="9" horiz-adv-x="1091" d="M141 883q0 102 30 188t84 148.5t130 97.5t166 35t162.5 -33t125 -94.5t81 -146.5t28.5 -189q0 -201 -120.5 -425t-374.5 -495h-166q51 55 103 119t102.5 130.5t95.5 132t78 122.5q-39 -20 -73 -28.5t-79 -8.5q-80 0 -148.5 34t-117.5 93.5t-78 141t-29 178.5zM295 889 q0 -147 69.5 -238.5t180.5 -91.5q115 0 182.5 90t67.5 242t-66.5 243t-177.5 91q-115 0 -185.5 -93.5t-70.5 -242.5z" />
<glyph unicode=":" horiz-adv-x="522" d="M143 96q0 49 35 84t84 35t83 -35t34 -84q0 -51 -33 -83.5t-84 -32.5q-49 0 -84 33.5t-35 82.5zM143 852q0 47 36 83t83 36t82 -35t35 -84q0 -51 -33 -84t-84 -33t-85 34t-34 83z" />
<glyph unicode=";" horiz-adv-x="489" d="M70 -299q66 66 111.5 149.5t54.5 147.5h-17q-45 0 -77.5 34t-32.5 79q0 49 35.5 83.5t88.5 34.5q59 0 95.5 -44t36.5 -115q0 -86 -39 -172t-127 -197h-129zM113 850q0 51 34.5 86t83.5 35q47 0 82 -36t35 -83q0 -51 -33.5 -84t-85.5 -33q-51 0 -83.5 33t-32.5 82z" />
<glyph unicode="&#x3c;" d="M68 627v125l886 413v-143l-733 -334l733 -332v-143z" />
<glyph unicode="=" horiz-adv-x="1091" d="M109 496v110h874v-110h-874zM109 768v111h874v-111h-874z" />
<glyph unicode="&#x3e;" d="M70 213v143l733 332l-733 334v143l886 -413v-125z" />
<glyph unicode="?" horiz-adv-x="843" d="M96 1020q8 162 93 247t243 85q147 0 231.5 -77t84.5 -212q0 -41 -7.5 -75t-28 -68.5t-53 -73.5t-86.5 -90q-37 -37 -59 -64.5t-35.5 -54.5t-17.5 -55.5t-4 -67.5v-127h-142v113q0 66 4.5 106.5t18.5 74.5t42 67.5t77 82.5q39 41 64.5 72t41 57.5t21.5 50t6 50.5 q0 72 -46 114t-124 42q-178 0 -197 -197h-127zM266 96q0 47 36 83t85 36q47 0 81 -34t34 -85t-33 -83.5t-84 -32.5q-49 0 -84 34.5t-35 81.5z" />
<glyph unicode="@" horiz-adv-x="1501" d="M70 682q0 152 54 282t150.5 225t227.5 148.5t284 53.5q141 0 260 -45.5t205 -125t134.5 -191t48.5 -245.5q0 -98 -28 -187t-74 -156.5t-106.5 -107.5t-127.5 -40q-61 0 -101.5 38t-48.5 103q-96 -145 -254 -145q-63 0 -116.5 24.5t-92.5 68.5t-60.5 105.5t-21.5 133.5 q0 86 29 161.5t78 132t114.5 89t139.5 32.5q164 0 227 -155l25 131h108l-84 -432q-6 -33 -10 -58.5t-4 -38.5q0 -45 21.5 -72.5t56.5 -27.5q43 0 84 34t72.5 89t51 127t19.5 147q0 115 -40 209t-111.5 162t-173 105.5t-222.5 37.5q-129 0 -239.5 -47t-191.5 -129 t-127 -194.5t-46 -243.5q0 -125 43 -237.5t121 -194.5q162 -174 463 -174q123 0 221 21.5t207 72.5l29 -96q-207 -96 -457 -97q-166 0 -301 49.5t-234 147.5q-96 94 -149 228.5t-53 281.5zM526 618q0 -102 51.5 -164.5t137.5 -62.5q51 0 94 24.5t74.5 68.5t49 104.5 t17.5 132.5q0 98 -46 153.5t-132 55.5q-49 0 -94 -24.5t-79 -67.5t-53.5 -99.5t-19.5 -120.5z" />
<glyph unicode="A" horiz-adv-x="1159" d="M41 0l471 1374h133l471 -1374h-160l-120 362h-514l-123 -362h-158zM362 496h431l-215 680z" />
<glyph unicode="B" horiz-adv-x="1124" d="M176 0v1366h250q70 0 120 -2t88 -5t67.5 -9.5t58.5 -16.5q100 -35 155.5 -114.5t55.5 -192.5q0 -117 -55.5 -189.5t-172.5 -109.5q154 -37 226.5 -121t72.5 -225q0 -125 -62 -219t-167 -127q-33 -10 -66.5 -17.5t-78.5 -11.5t-105.5 -5t-148.5 -1h-238zM328 129h137 q61 0 106 2t79 6t60.5 10.5t49.5 16.5q55 23 88 85t33 140q0 86 -42 148.5t-116 87.5q-23 6 -45.5 11t-51 8t-67.5 4t-94 1h-137v-520zM328 778h129q100 0 156.5 9.5t99.5 33.5q102 57 102 195q0 72 -31.5 123t-91.5 73q-20 8 -40.5 12.5t-47 7.5t-64.5 4t-91 1h-121v-459z " />
<glyph unicode="C" horiz-adv-x="1230" d="M104 678q0 186 50.5 329.5t148.5 239.5q72 68 166 106t199 38q115 0 211 -45.5t155 -124.5q35 -49 55.5 -102.5t30.5 -131.5h-143q-59 268 -311 268q-92 0 -165 -39.5t-125 -114.5t-80 -181.5t-28 -237.5t28 -237.5t80 -180.5t125.5 -113.5t166.5 -39.5q143 0 228 90 t101 262h146q-18 -233 -141 -360.5t-328 -127.5q-131 0 -236.5 49.5t-179.5 141.5t-114 222t-40 290z" />
<glyph unicode="D" horiz-adv-x="1284" d="M176 0v1366h215q98 0 170 -3t127 -12.5t98 -24.5t84 -38q72 -39 129.5 -101.5t97.5 -140t61.5 -170t21.5 -192.5q0 -104 -22.5 -198.5t-63.5 -173.5t-101.5 -140t-134.5 -98q-43 -23 -85 -37t-96 -22.5t-126 -11.5t-176 -3h-199zM330 133h100q80 0 135.5 3t96 10.5 t72.5 21.5t67 35q104 63 160.5 189t56.5 292q0 174 -62.5 304t-177.5 190q-33 18 -63.5 28.5t-72.5 16.5t-101.5 8t-149.5 2h-61v-1100z" />
<glyph unicode="E" horiz-adv-x="1028" d="M176 0v1366h750v-133h-596v-459h553v-133h-553v-508h610v-133h-764z" />
<glyph unicode="F" horiz-adv-x="997" d="M176 0v1366h750v-133h-596v-459h553v-133h-553v-641h-154z" />
<glyph unicode="G" horiz-adv-x="1273" d="M104 686q0 160 40 290t115 222t180.5 142.5t234.5 50.5q193 0 311.5 -104.5t140.5 -297.5h-143q-61 266 -309 266q-94 0 -169 -39.5t-127 -113.5t-81 -179.5t-29 -238.5q0 -274 112 -423.5t316 -149.5q158 0 310 90v344h-277v133h416v-561q-98 -70 -212 -106t-239 -36 q-137 0 -246.5 49.5t-185.5 140.5t-117 223t-41 298z" />
<glyph unicode="H" horiz-adv-x="1298" d="M176 0v1366h154v-588h641v588h153v-1366h-153v651h-641v-651h-154z" />
<glyph unicode="I" horiz-adv-x="503" d="M174 0v1366h158v-1366h-158z" />
<glyph unicode="J" horiz-adv-x="589" d="M-4 -45h22h13q12 -1 23 -1q54 0 104 22q61 28 82 73q6 16 10 31.5t6 39t3 61.5t1 95v1090h158v-1090q0 -72 -1 -117.5t-4 -76.5t-10.5 -52.5t-17.5 -43.5q-39 -80 -125 -122t-215 -42h-49v133z" />
<glyph unicode="K" horiz-adv-x="1142" d="M176 0v1366h154v-1366h-154zM332 717l553 649h186l-557 -645l610 -721h-209z" />
<glyph unicode="L" horiz-adv-x="972" d="M176 0v1366h158v-1233h584v-133h-742z" />
<glyph unicode="M" horiz-adv-x="1583" d="M176 0v1366h232l383 -1198l385 1198h231v-1366h-145v1212l-394 -1212h-153l-393 1212v-1212h-146z" />
<glyph unicode="N" horiz-adv-x="1316" d="M176 0v1366h166l655 -1137v1137h144v-1366h-168l-651 1135v-1135h-146z" />
<glyph unicode="O" horiz-adv-x="1323" d="M104 692q0 154 41 282t115 221t176.5 144.5t225.5 51.5t225 -51.5t176 -144.5t114 -223t40 -288t-40 -288t-113 -223t-175.5 -144.5t-226.5 -51.5q-125 0 -228.5 51.5t-176.5 144.5t-113 225t-40 294zM268 690q0 -133 28 -239.5t79 -182t123.5 -115.5t163.5 -40 q90 0 162.5 40t122.5 114.5t78 180t28 236.5q0 129 -28 234.5t-79 180.5t-122.5 115.5t-161.5 40.5q-88 0 -161 -40.5t-124 -114.5t-80 -178.5t-29 -231.5z" />
<glyph unicode="P" horiz-adv-x="1077" d="M176 0v1366h225q76 0 133.5 -2t101.5 -6t78 -11.5t64 -17.5q113 -39 177.5 -137t64.5 -236q0 -129 -55.5 -221t-157.5 -133q-33 -12 -65.5 -21.5t-75.5 -14.5t-100.5 -7t-135.5 -2h-100v-557h-154zM330 690h96q53 0 90 1t65.5 3t51 5t47.5 10q86 20 132 83.5t46 163.5 q0 90 -37 154t-102 90q-25 10 -50.5 16.5t-59.5 10.5t-82 5t-117 1h-80v-543z" />
<glyph unicode="Q" horiz-adv-x="1343" d="M104 684q0 156 41 286t115 223t176.5 145.5t225.5 52.5t224 -52.5t175 -145.5t115 -222t41 -285q0 -123 -21.5 -219t-69.5 -195l269 -288h-187l-161 170q-152 -176 -388 -177q-123 0 -225 51.5t-175 145.5t-114 224t-41 286zM268 690q0 -129 29 -236.5t80 -183 t123.5 -117.5t161.5 -42q86 0 158.5 42t123.5 117.5t80 181t29 232.5t-29 232.5t-80 180t-123.5 116.5t-158.5 42t-159 -42t-125 -116.5t-81 -178t-29 -228.5z" />
<glyph unicode="R" horiz-adv-x="1148" d="M176 0v1366h242q80 0 136 -2t99 -6t77 -13.5t67 -21.5q104 -39 162.5 -130t58.5 -214q0 -268 -281 -371l359 -608h-185l-344 584h-237v-584h-154zM330 717h96q61 0 103 1t73 4t53.5 8t46.5 13q72 27 113 89.5t41 148.5q0 78 -35 135.5t-94 83.5q-25 10 -48.5 17.5 t-56 10.5t-79.5 4t-121 1h-92v-516z" />
<glyph unicode="S" horiz-adv-x="1120" d="M104 416h150q23 -303 313 -303q125 0 204 64.5t79 168.5q0 98 -82 168q-16 14 -32.5 25.5t-40 25t-57.5 28.5t-83 38q-113 49 -181.5 86t-103.5 65q-120 97 -120 249q0 81 30.5 145.5t86 112.5t131 75t163.5 27q111 0 201 -43t143 -121q31 -47 45.5 -95.5t18.5 -119.5 h-150q-10 117 -79.5 180t-186.5 63q-51 0 -97 -16t-80 -45t-53.5 -66.5t-19.5 -83.5q0 -41 21.5 -77.5t60.5 -65.5q16 -10 28.5 -17t36 -18.5t64.5 -30t115 -53.5q68 -31 116 -55.5t83.5 -46t60 -42t43.5 -42.5q76 -98 76 -231q0 -88 -32 -159t-90.5 -122t-141 -79 t-183.5 -28q-215 0 -329.5 111t-127.5 328z" />
<glyph unicode="T" horiz-adv-x="948" d="M43 1233v133h864v-133h-356v-1233h-154v1233h-354z" />
<glyph unicode="U" horiz-adv-x="1280" d="M158 559v807h153v-805q0 -78 2 -130t7.5 -87t15.5 -59.5t24 -46.5q39 -59 111 -92t170 -33q113 0 191.5 44t109.5 124q8 20 13.5 41.5t8.5 53.5t4 76t1 109v805h153v-807q0 -82 -1 -133t-4 -85t-10 -57.5t-17 -52.5q-49 -123 -166 -188.5t-283 -65.5t-283.5 66 t-167.5 188q-10 29 -17 52.5t-10 57.5t-4 85t-1 133z" />
<glyph unicode="V" horiz-adv-x="1148" d="M27 1366h161l390 -1188l383 1188h159l-469 -1374h-155z" />
<glyph unicode="W" horiz-adv-x="1591" d="M37 1366h145l264 -1163l285 1163h131l285 -1163l266 1163h143l-325 -1374h-166l-270 1067l-269 -1067h-166z" />
<glyph unicode="X" horiz-adv-x="1112" d="M41 0l428 715l-403 651h176l315 -524l320 524h176l-406 -651l426 -715h-174l-342 571l-342 -571h-174z" />
<glyph unicode="Y" horiz-adv-x="1048" d="M25 1366h176l327 -639l322 639h176l-426 -793l2 -573h-153l2 573z" />
<glyph unicode="Z" horiz-adv-x="1009" d="M63 0v119l697 1116h-654v131h840v-104l-702 -1129h690v-133h-871z" />
<glyph unicode="[" horiz-adv-x="575" d="M188 -397v1763h308v-119h-172v-1526h172v-118h-308z" />
<glyph unicode="\" horiz-adv-x="1167" d="M111 1366h143l803 -1671h-144z" />
<glyph unicode="]" horiz-adv-x="575" d="M80 -279h172v1526h-172v119h307v-1763h-307v118z" />
<glyph unicode="^" d="M53 752l365 618h188l365 -618h-158l-303 503l-301 -503h-156z" />
<glyph unicode="_" d="M0 -135h1024v-133h-1024v133z" />
<glyph unicode="`" d="M221 1401h205l213 -281h-121z" />
<glyph unicode="a" horiz-adv-x="974" d="M94 254q0 102 57.5 177t167.5 116q35 12 71 23.5t79 21.5t95 19.5t120 21.5v41q0 111 -44 155.5t-155 44.5q-98 0 -148 -37.5t-67 -119.5h-141q16 139 107.5 209.5t255.5 70.5q121 0 201.5 -41t109.5 -118q14 -37 18 -82t4 -135v-365q0 -59 1 -97t4.5 -64.5t8.5 -48 t13 -46.5h-137q-10 35 -14.5 59.5t-8.5 71.5q-86 -156 -284 -156q-143 0 -228.5 76t-85.5 203zM242 266q0 -76 52 -123t136 -47q72 0 129 31t88 90q37 68 37 213v96q-121 -20 -206 -45.5t-137 -56.5t-75.5 -70t-23.5 -88z" />
<glyph unicode="b" horiz-adv-x="1040" d="M133 0q6 23 9 44.5t4 52t2.5 72.5t1.5 105v1098h143v-543q55 90 120.5 129t157.5 39q84 0 154 -36.5t119 -103t76.5 -160t27.5 -208.5q0 -117 -28.5 -211t-80 -161.5t-124 -104.5t-160.5 -37q-92 0 -154.5 38t-113.5 124q0 -53 -3 -77.5t-14 -59.5h-137zM291 481 q0 -174 69.5 -277.5t186.5 -103.5t185.5 104.5t68.5 284.5q0 176 -66.5 279.5t-177.5 103.5q-123 0 -194.5 -105t-71.5 -286z" />
<glyph unicode="c" horiz-adv-x="952" d="M92 483q0 119 29 214.5t83 162t130 102t170 35.5q154 0 243 -87t105 -255h-141q-20 119 -68.5 169t-142.5 50q-123 0 -191.5 -103t-68.5 -286q0 -109 28.5 -194.5t81.5 -138.5t154 -54q98 0 149.5 56.5t63.5 179.5h143q-14 -176 -105 -267.5t-251 -91.5q-94 0 -170 36 t-129 102.5t-83 161t-30 208.5z" />
<glyph unicode="d" horiz-adv-x="1040" d="M90 477q0 117 27.5 212t78 164t120 106.5t155.5 37.5q96 0 159.5 -37.5t114.5 -125.5v538h144v-1085q0 -63 1 -108.5t3 -78t5 -55t9 -45.5h-141q-8 29 -11 52.5t-3 51.5v16.5t2 18.5q-53 -90 -116 -127t-157 -37q-88 0 -160.5 36t-124 101.5t-79 157.5t-27.5 207z M238 481q0 -88 22.5 -166.5t63.5 -134.5q29 -39 71.5 -59.5t96.5 -20.5q119 0 187.5 102.5t68.5 282.5t-66.5 283.5t-183.5 103.5q-123 0 -191.5 -104t-68.5 -287z" />
<glyph unicode="e" horiz-adv-x="995" d="M92 475q0 119 30 215t84 165t132 105.5t172 36.5q90 0 161.5 -34.5t124 -99t80 -157t27.5 -204.5v-15.5t-2 -25.5h-661q4 -180 74.5 -271.5t205.5 -91.5q82 0 133.5 33t91.5 115l134 -17q-90 -254 -361 -254q-98 0 -177 35t-134 99.5t-85 157.5t-30 208zM244 573h510 q-12 147 -76 225.5t-174 78.5q-217 0 -260 -304z" />
<glyph unicode="f" horiz-adv-x="581" d="M33 854v117h137v61q0 55 2 93t6 66t12.5 49.5t20.5 41.5q31 53 89 83t128 30q72 0 154 -31v-133q-39 20 -72 28.5t-64 8.5q-90 0 -116 -84q-14 -41 -15 -148v-65h242v-117h-235v-854h-152v854h-137z" />
<glyph unicode="g" horiz-adv-x="989" d="M59 -137q0 88 48.5 144t156.5 95q-57 23 -80.5 48.5t-23.5 64.5q0 49 39 85t135 71q-195 78 -195 280q0 152 97.5 242t259.5 90q41 0 74.5 -5t76.5 -17l297 10v-109l-199 4q41 -37 62.5 -96t21.5 -127q0 -72 -25.5 -129t-72.5 -92q-61 -47 -219 -80q-61 -12 -101 -23.5 t-62.5 -23.5t-32 -26.5t-9.5 -32.5q0 -14 6 -24.5t25.5 -18t58.5 -12.5t105 -11q72 -6 121 -12t82.5 -14.5t58 -17.5t49.5 -22q59 -35 91 -92t32 -129q0 -141 -117 -221t-321 -80q-201 0 -320 76t-119 205zM190 -129q0 -78 84 -124t224 -46q137 0 218 46t81 124 q0 84 -79 126t-231 42q-141 0 -219 -44t-78 -124zM276 655q0 -88 58.5 -144t150.5 -56q94 0 151.5 55t57.5 145q0 45 -15 84t-42 68t-63.5 45t-79.5 16q-96 0 -157 -59t-61 -154z" />
<glyph unicode="h" horiz-adv-x="1028" d="M150 0v1372h143v-516q55 74 120.5 107.5t157.5 33.5q90 0 161 -34.5t108 -98.5q12 -23 21 -46t13.5 -57t6.5 -83t2 -121v-557h-144v549q0 53 -1 89t-5 61.5t-9 44t-15 34.5q-51 92 -168 92q-66 0 -120 -31.5t-87 -88.5q-41 -74 -41 -215v-535h-143z" />
<glyph unicode="i" horiz-adv-x="452" d="M121 1278q0 47 29.5 76.5t76.5 29.5q45 0 74 -29.5t29 -74.5t-30 -74.5t-75 -29.5t-74.5 29.5t-29.5 72.5zM150 0v971h151v-971h-151z" />
<glyph unicode="j" horiz-adv-x="514" d="M-55 -256q8 -2 18 -2l14 2h29h15q63 0 110 30q53 33 70 91q8 29 11 77t3 142v887h152v-887q0 -74 -2.5 -125t-8.5 -87t-15 -62.5t-24 -51.5q-41 -70 -117.5 -105.5t-181.5 -35.5h-24h-25h-24v127zM186 1278q0 47 30 76.5t77 29.5q45 0 73.5 -29.5t28.5 -74.5t-29.5 -74.5 t-74.5 -29.5t-75 28.5t-30 73.5z" />
<glyph unicode="k" horiz-adv-x="987" d="M150 0v1372h143v-1372h-143zM295 528l410 443h174l-406 -436l436 -535h-198z" />
<glyph unicode="l" horiz-adv-x="452" d="M150 0v1372h151v-1372h-151z" />
<glyph unicode="m" horiz-adv-x="1566" d="M127 971h141q18 -51 19 -133q47 84 113.5 121.5t168.5 37.5t167 -41t102 -129q49 88 121.5 129t177.5 41q180 0 249 -125q12 -20 19.5 -40.5t11.5 -50t5 -73.5t1 -114v-594h-143v594q0 47 -1 79t-4 53.5t-8 37.5t-16 31q-44 73 -156 73h-3q-133 0 -195 -106 q-20 -35 -28.5 -79t-8.5 -110v-573h-143v571q0 55 -1 90t-3 57.5t-6.5 36t-12.5 27.5q-45 88 -164 88q-66 0 -118 -28.5t-80 -81.5q-20 -37 -28.5 -83t-8.5 -112v-565h-143v670q0 76 -1 121t-3.5 74.5t-7.5 52t-13 53.5z" />
<glyph unicode="n" horiz-adv-x="1032" d="M125 971h137q10 -31 15.5 -62.5t5.5 -79.5q98 168 292 168q102 0 174 -41t105 -116q10 -25 16.5 -44.5t9.5 -49t4 -73.5t1 -116v-557h-144v549q0 55 -1 91t-4 60.5t-8 42t-13 35.5q-47 92 -168 92q-66 0 -122 -31.5t-91 -88.5q-23 -39 -33 -88.5t-10 -118.5v-543h-144 v641v136t-2 82t-7 55.5t-13 56.5z" />
<glyph unicode="o" horiz-adv-x="1032" d="M92 494q0 111 32 202.5t88 159.5t134 104.5t170 36.5q94 0 172 -36.5t134.5 -104.5t87 -162t30.5 -209q0 -113 -30.5 -207t-87 -161.5t-134.5 -104.5t-172 -37t-173 38t-134 105.5t-86 163t-31 212.5zM240 492q0 -88 19.5 -161t55 -125t87 -80t114.5 -28q61 0 112.5 28 t88.5 79t56.5 122.5t19.5 157.5q0 88 -19.5 160t-56.5 123t-88.5 78.5t-112.5 27.5t-112.5 -27.5t-87 -78.5t-56 -120.5t-20.5 -155.5z" />
<glyph unicode="p" horiz-adv-x="1040" d="M131 971h141q4 -16 7.5 -29.5t5.5 -29t3 -35t1 -50.5q53 92 116.5 131t157.5 39q86 0 158 -36.5t122 -104.5t77.5 -163t27.5 -210t-26.5 -208t-75.5 -159.5t-119 -103.5t-154 -37q-94 0 -160.5 37t-119.5 123v-538h-143v1085q0 63 -1.5 106t-3.5 75t-5 56.5t-9 51.5z M291 485q0 -174 71.5 -279.5t190.5 -105.5q106 0 164 76q84 115 84 303q0 98 -24.5 182t-69.5 142q-58 69 -156 69q-119 0 -189.5 -104t-70.5 -283z" />
<glyph unicode="q" horiz-adv-x="1040" d="M90 477q0 117 27.5 213t79 165t124 105.5t160.5 36.5q96 0 158.5 -38.5t108.5 -129.5q2 49 5 82t13 60h141q-6 -23 -9 -45.5t-5 -55t-3 -77.5t-1 -111v-1085h-144v536q-55 -86 -117.5 -122t-150.5 -36q-86 0 -157.5 36t-123 102.5t-79 159t-27.5 204.5zM238 477 q0 -174 66.5 -275.5t180.5 -101.5q121 0 192 103.5t71 281.5q0 88 -18.5 160t-51.5 122t-80 77.5t-106 27.5q-117 0 -185.5 -107.5t-68.5 -287.5z" />
<glyph unicode="r" horiz-adv-x="669" d="M135 971h137q10 -37 14.5 -76t4.5 -74v-24.5t-2 -34.5q51 123 111.5 179t138.5 56q29 0 56.5 -7t59.5 -23v-144q-49 23 -74.5 31t-54.5 8q-57 0 -105 -39t-81 -110q-23 -51 -33 -116t-10 -163v-434h-145v637q0 84 -1 133t-2.5 82t-4.5 58.5t-9 60.5z" />
<glyph unicode="s" horiz-adv-x="897" d="M90 301h139q18 -205 226 -205q98 0 152.5 45t54.5 125q0 74 -66 115q-12 8 -24.5 13t-34 13.5t-57.5 19.5t-97 30q-141 43 -200.5 103.5t-59.5 162.5q0 61 24.5 111.5t68.5 87t105.5 56t135.5 19.5q156 0 241.5 -74.5t94.5 -217.5h-140q-20 174 -198 174 q-84 0 -135.5 -40t-51.5 -106q0 -31 9.5 -52.5t34 -38.5t68.5 -34.5t114 -38.5q59 -18 102 -32.5t72.5 -28.5t50 -28.5t35.5 -33.5q55 -68 55 -167q0 -141 -94 -222.5t-258 -81.5q-180 0 -273.5 83t-93.5 243z" />
<glyph unicode="t" horiz-adv-x="643" d="M57 854v117h150l6 280h139l-4 -280h230v-117h-232l-10 -492v-73q0 -63 2 -91t10 -46q10 -23 36 -35.5t60 -12.5q29 0 69 9.5t71 25.5v-127q-89 -32 -167 -32h-5q-72 0 -124 24.5t-77 67.5q-14 23 -19.5 55.5t-5.5 83.5v32.5t2 47.5l2 76l13 487h-146z" />
<glyph unicode="u" horiz-adv-x="1017" d="M145 377v594h144v-594q0 -82 8 -127t29 -74q51 -72 161 -72q133 0 199 113q23 35 31 83t8 120v551h143v-676v-125t2 -74.5t7.5 -49t13.5 -46.5h-141q-10 33 -14.5 61.5t-6.5 67.5q-43 -82 -103.5 -118t-154.5 -36q-98 0 -173 41t-114 115q-23 41 -31 93t-8 153z" />
<glyph unicode="v" horiz-adv-x="882" d="M20 971h150l272 -815l271 815h147l-344 -983h-151z" />
<glyph unicode="w" horiz-adv-x="1353" d="M31 971h147l209 -770l227 770h123l228 -770l209 770h147l-281 -983h-141l-223 762l-225 -762h-140z" />
<glyph unicode="x" horiz-adv-x="903" d="M12 0l355 516l-304 455h166l224 -346l225 346h174l-311 -455l350 -516h-172l-266 401l-269 -401h-172z" />
<glyph unicode="y" horiz-adv-x="897" d="M33 971h153l265 -809l272 809h149l-319 -903q-33 -96 -55.5 -155.5t-40 -96.5t-34.5 -61.5t-40 -49.5q-109 -115 -283 -115h-18t-27 2v127q70 0 117 10.5t81 39t61.5 82t56.5 139.5z" />
<glyph unicode="z" horiz-adv-x="815" d="M45 0v113l551 739h-508v119h684v-107l-557 -745h547v-119h-717z" />
<glyph unicode="{" horiz-adv-x="575" d="M94 436v96q63 16 89 60.5t26 136.5v322q0 66 6 113.5t20.5 82.5t37 58.5t55.5 40.5q31 16 64.5 23t80.5 7h41h18v-110q-102 0 -147 -33q-27 -20 -36 -57t-9 -119v-326q0 -51 -5 -88t-18.5 -65.5t-35 -50t-56.5 -44.5q35 -20 56.5 -42.5t35 -50.5t18.5 -64.5t5 -87.5v-326 q0 -90 13.5 -129t47.5 -57q43 -23 131 -23v-111l-18 -2h-14q-82 0 -138.5 16.5t-90 54.5t-48 100.5t-14.5 154.5v324q0 92 -25.5 135t-89.5 61z" />
<glyph unicode="|" d="M440 -342v1708h144v-1708h-144z" />
<glyph unicode="}" horiz-adv-x="575" d="M43 -297q117 0 160 45q16 18 23 56t7 108v326q0 51 5.5 87.5t18.5 64.5t35.5 50.5t55.5 42.5q-33 23 -55.5 44.5t-35.5 50t-18.5 65.5t-5.5 88v326q0 70 -7 106.5t-23 57.5q-43 45 -160 45v110h18h39q156 0 219 -94q25 -35 35.5 -87t10.5 -144v-322q0 -92 25.5 -136 t90.5 -61v-96q-66 -16 -91 -60t-25 -136v-324q0 -92 -14.5 -154.5t-48.5 -100.5t-89 -54.5t-137 -16.5h-15l-18 2v111z" />
<glyph unicode="~" horiz-adv-x="1366" d="M190 500q25 47 42.5 77.5t37.5 53.5q78 102 199 102q41 0 94 -16.5t137 -54.5q43 -20 74 -34t52.5 -21t38 -10t34.5 -3q59 0 100 30.5t88 112.5l87 -53q-31 -61 -56.5 -97t-58.5 -65q-39 -31 -85 -48t-91 -17q-20 0 -43 4t-53.5 14t-76.5 30.5t-114 51.5q-88 39 -137 39 q-53 0 -96.5 -36t-86.5 -116z" />
<glyph unicode="&#xa1;" horiz-adv-x="509" d="M135 852q0 47 36 83t83 36t82 -35t35 -84q0 -53 -33 -85t-86 -32q-49 0 -83 34t-34 83zM176 -391l25 956h114l17 -956h-156z" />
<glyph unicode="&#xa2;" horiz-adv-x="1091" d="M162 682q0 215 91 349t259 167v195h82v-191q145 -8 232 -98t96 -244h-146q-6 104 -49 155.5t-135 61.5v-772q172 20 194 234h144q-2 -74 -29 -138.5t-72 -112.5t-105 -76t-132 -32v-209h-82v213q-166 27 -257 157t-91 341zM307 686q0 -104 30 -189t83 -139q33 -33 92 -49 v762q-98 -33 -151.5 -134t-53.5 -251z" />
<glyph unicode="&#xa3;" horiz-adv-x="1091" d="M96 637v121h217q14 84 25.5 143.5t21 103.5t17.5 77.5t16 64.5q37 129 104.5 185.5t180.5 56.5q80 0 140.5 -31t88.5 -84q29 -55 35 -166h-135q-8 84 -37 118t-90 34q-68 0 -101.5 -42t-60.5 -159q-6 -27 -10 -49.5t-10 -53t-13.5 -76.5t-19.5 -122h307v-121h-328 q-27 -176 -63.5 -308t-79.5 -208q53 10 95 14t102 4h77q31 -2 50.5 -2h29.5h43h29q72 0 102.5 37t34.5 127h131q0 -78 -14 -126t-47 -89q-20 -27 -41 -43t-50.5 -25.5t-69.5 -13.5t-99 -4h-563q25 39 48 94.5t45.5 133t44 179t44.5 230.5h-197z" />
<glyph unicode="&#xa4;" horiz-adv-x="1366" d="M109 1221l84 84l194 -195q72 53 141.5 76.5t153.5 23.5t153.5 -23.5t139.5 -74.5l194 191l82 -82l-192 -193q53 -68 78.5 -137.5t25.5 -153.5q0 -162 -102 -291l194 -194l-81 -84l-195 194q-133 -100 -295 -100q-80 0 -149.5 23.5t-145.5 76.5l-192 -194l-84 84l192 194 q-104 127 -104 289q0 80 24.5 148.5t79.5 142.5zM338 735q0 -70 27.5 -133t73.5 -109.5t109.5 -74t133.5 -27.5q72 0 134.5 27.5t109.5 74t73.5 110t26.5 132.5q0 72 -26.5 134.5t-72.5 109.5t-107.5 74.5t-133.5 27.5q-74 0 -137.5 -26.5t-110.5 -73.5t-73.5 -109.5 t-26.5 -136.5z" />
<glyph unicode="&#xa5;" horiz-adv-x="1091" d="M47 1366h174l330 -641l328 641h165l-256 -496h199v-100h-250l-84 -162h334v-100h-356v-508h-154v508h-373v100h349l-86 162h-263v100h209z" />
<glyph unicode="&#xa6;" d="M440 313h144v-655h-144v655zM440 684v682h144v-682h-144z" />
<glyph unicode="&#xa7;" d="M115 12h133q12 -125 65.5 -177t169.5 -52q106 0 164 50t58 142q0 29 -6.5 52.5t-20.5 44t-39 40t-61 44.5q-14 10 -28.5 18t-39.5 22.5t-66 38t-110 62.5q-109 63 -157 126.5t-48 141.5t44 137.5t142 112.5q-76 51 -109.5 107.5t-33.5 130.5q0 66 25.5 120t71.5 94 t109.5 62.5t137.5 22.5q162 0 253 -87t97 -253h-131q-12 117 -63 168t-156 51q-92 0 -148.5 -48t-56.5 -126q0 -31 7.5 -54.5t29 -46t59 -47t99.5 -59.5q123 -68 186.5 -104.5t95.5 -65.5q51 -41 74 -86t23 -105q0 -84 -43 -146t-135 -114q74 -57 105.5 -115.5t31.5 -136.5 q0 -147 -95.5 -231t-265.5 -84q-362 0 -368 350zM266 569q0 -31 14.5 -58.5t51.5 -58t102.5 -69.5t167.5 -92q68 33 107 83t39 103q0 74 -76 127q-20 12 -51 30.5t-65 38t-68.5 40.5t-65.5 37q-156 -74 -156 -181z" />
<glyph unicode="&#xa8;" d="M229 1270q0 47 31 76.5t78 29.5t76.5 -29.5t29.5 -76.5q0 -45 -31.5 -77t-74.5 -32q-45 0 -77 32t-32 77zM578 1270q0 45 31.5 75.5t78.5 30.5q45 0 75 -29.5t30 -76.5t-31 -78t-76 -31q-43 0 -75.5 32t-32.5 77z" />
<glyph unicode="&#xa9;" horiz-adv-x="1615" d="M102 684q0 147 55.5 277.5t153 225.5t227 150.5t279.5 55.5q143 0 270 -56.5t222.5 -153t151 -224.5t55.5 -273q0 -147 -55.5 -275t-152 -224.5t-225.5 -151.5t-274 -55q-147 0 -275 55t-224.5 150.5t-152 224.5t-55.5 274zM197 684q0 -129 48 -242.5t131 -198.5 t194.5 -133.5t238.5 -48.5t238.5 49.5t194.5 133.5t131 197.5t48 242.5q0 127 -48 240.5t-131 198.5t-192.5 135.5t-232.5 50.5q-131 0 -243.5 -48.5t-196.5 -133.5t-132 -198.5t-48 -244.5zM475 690q0 96 25.5 175t73 135.5t114 87t148.5 30.5q125 0 201.5 -65.5 t92.5 -186.5h-104q-37 158 -190 158q-113 0 -178.5 -89t-65.5 -243t64.5 -240.5t179.5 -86.5q184 0 202 206h105q-10 -143 -89 -222t-214 -79q-168 0 -266.5 114t-98.5 306z" />
<glyph unicode="&#xaa;" d="M236 575v80h536v-80h-536zM258 926q0 61 37 108t108 74q45 16 94.5 28.5t133.5 26.5v29q0 55 -28 79.5t-93 24.5q-61 0 -91 -22.5t-40 -75.5h-100q16 184 235 184q78 0 129 -25.5t72 -74.5q10 -23 12 -47.5t2 -87.5v-219q0 -37 1 -60.5t2 -40t5 -31t11 -30.5h-97 q-8 23 -10 37t-4 31q-37 -47 -77 -65.5t-99 -18.5q-92 0 -147.5 49t-55.5 127zM360 934q0 -45 32 -72.5t83 -27.5q41 0 78 19t55 52q23 37 23 127v55q-154 -31 -212.5 -64.5t-58.5 -88.5z" />
<glyph unicode="&#xab;" horiz-adv-x="780" d="M88 477l184 494h105l-156 -494l156 -477h-105zM352 477l185 494h106l-158 -494l158 -477h-106z" />
<glyph unicode="&#xac;" d="M68 412v133h886v-545h-143v412h-743z" />
<glyph unicode="&#xad;" horiz-adv-x="561" d="M0 459v112h561v-112h-561z" />
<glyph unicode="&#xae;" horiz-adv-x="1615" d="M102 684q0 147 55.5 277.5t153 225.5t227 150.5t279.5 55.5q143 0 270 -56.5t222.5 -153t151 -224.5t55.5 -273q0 -147 -55.5 -275t-152 -224.5t-225.5 -151.5t-274 -55t-274 55t-225.5 150.5t-152 224.5t-55.5 274zM195 684q0 -129 48 -243.5t131 -199.5t195.5 -134.5 t239.5 -49.5t239.5 49.5t195.5 134.5t131 199.5t48 243.5t-48 242.5t-131 199.5t-192.5 135.5t-234.5 49.5q-131 0 -244.5 -48.5t-197.5 -133.5t-132 -198.5t-48 -246.5zM565 270v820h160q49 0 84 -1.5t62.5 -4.5t49 -8t44.5 -13q66 -23 104.5 -79t38.5 -128 q0 -160 -172 -223l227 -363h-133l-217 346h-137v-346h-111zM676 709h53q39 0 64.5 1t44 2t33 4t28.5 9q92 29 92 131q0 92 -76 123q-14 6 -28.5 10t-35 5t-50 2t-74.5 1h-51v-288z" />
<glyph unicode="&#xaf;" d="M233 1210v109h560v-109h-560z" />
<glyph unicode="&#xb0;" d="M221 1110q0 57 23.5 108.5t62.5 89.5t92.5 60.5t110.5 22.5q59 0 112.5 -22.5t93.5 -60.5t62.5 -89.5t22.5 -110.5q0 -57 -22.5 -109.5t-62.5 -91.5t-92.5 -61.5t-111.5 -22.5q-61 0 -113.5 22.5t-92.5 61.5t-62.5 91.5t-22.5 111.5zM317 1110q0 -39 15.5 -75t41 -61.5 t61.5 -40.5t77 -15q39 0 74 15t61.5 40.5t42 59.5t15.5 73t-15.5 73.5t-42 60.5t-61.5 41t-76 15q-39 0 -74 -15t-61.5 -41t-42 -59.5t-15.5 -70.5z" />
<glyph unicode="&#xb1;" horiz-adv-x="1091" d="M109 59v111h874v-111h-874zM109 645v107h380v395h113v-395h381v-107h-381v-383h-113v383h-380z" />
<glyph unicode="&#xb2;" horiz-adv-x="718" d="M117 530v80q2 4 35.5 44t99.5 120q88 109 137 170.5t73.5 98t31 57t6.5 43.5q0 49 -36 78.5t-95 29.5q-139 0 -148 -161h-100q4 254 254 253q106 0 170.5 -53t64.5 -145q0 -27 -5 -50.5t-19.5 -51t-40 -62.5t-66.5 -84q-16 -20 -37.5 -46t-42 -51.5t-39 -48t-30.5 -38.5 q-20 -25 -31.5 -39.5t-19 -22.5t-12.5 -13t-11 -13h367v-95h-506z" />
<glyph unicode="&#xb3;" horiz-adv-x="718" d="M84 774h98q4 -156 164 -156q78 0 124 41t46 111q0 33 -13.5 60.5t-36 47t-53 31t-65.5 9.5l-22 -3l-19 3l-22 -3v95q14 -2 23 -3t18 -1q74 0 117.5 35.5t43.5 97.5q0 53 -35.5 84.5t-97.5 31.5q-127 0 -145 -135h-96q4 111 68.5 169.5t176.5 58.5q106 0 173 -56.5 t67 -146.5q0 -121 -115 -174q72 -27 107 -77t35 -122q0 -111 -76 -178.5t-199 -67.5q-131 0 -199.5 63.5t-66.5 184.5z" />
<glyph unicode="&#xb4;" d="M430 1120l213 281h205l-299 -281h-119z" />
<glyph unicode="&#xb5;" d="M98 -342v1325h144v-559q0 -113 18.5 -171t67.5 -103q72 -66 178 -66q127 0 207 104q39 51 54 108.5t15 147.5v539h144v-983h-144v178q-47 -106 -114.5 -155.5t-165.5 -49.5q-86 0 -148.5 37t-111.5 115v-467h-144z" />
<glyph unicode="&#xb6;" horiz-adv-x="1185" d="M43 999q0 104 47 187.5t133 128.5q51 27 122 39t175 12h522v-117h-122v-1450h-129v1450h-213v-1450h-129v846h-31h-12q-78 0 -144.5 26.5t-115 75t-76 113t-27.5 139.5z" />
<glyph unicode="&#xb7;" horiz-adv-x="522" d="M143 512q0 49 36 84t83 35q49 0 83 -35t34 -84q0 -51 -33 -84t-84 -33q-49 0 -84 34t-35 83z" />
<glyph unicode="&#xb8;" d="M338 -326l27 -8q31 -10 44 -12t40 -2q109 0 108 94q0 49 -38 71.5t-128 22.5l76 160h98l-55 -115q176 -23 176 -153q0 -76 -54 -123t-140 -47q-41 0 -74 7t-80 28v77z" />
<glyph unicode="&#xb9;" horiz-adv-x="718" d="M164 1145v72q84 2 124 28.5t54 91.5h78v-805h-107v613h-149z" />
<glyph unicode="&#xba;" d="M240 1067q0 141 74.5 228t197.5 87q59 0 109.5 -22.5t86 -64.5t55 -99t19.5 -129q0 -141 -75.5 -229t-198.5 -88q-57 0 -107.5 23.5t-85 65.5t-55 100t-20.5 128zM244 575v80h536v-80h-536zM342 1067q0 -104 46 -167.5t122 -63.5q78 0 124 62.5t46 168.5q0 104 -46 166.5 t-122 62.5q-78 0 -124 -62.5t-46 -166.5z" />
<glyph unicode="&#xbb;" horiz-adv-x="780" d="M139 0l158 494l-158 477h105l184 -477l-184 -494h-105zM403 0l158 494l-158 477h107l184 -477l-184 -494h-107z" />
<glyph unicode="&#xbc;" horiz-adv-x="1689" d="M164 1145v72q84 2 124 28.5t54 91.5h78v-805h-107v613h-149zM393 0l778 1331h125l-778 -1331h-125zM1032 190v78l342 537h107v-524h145v-91h-143v-198h-109v198h-342zM1143 281h235v378z" />
<glyph unicode="&#xbd;" horiz-adv-x="1689" d="M164 1145v72q84 2 124 28.5t54 91.5h78v-805h-107v613h-149zM393 0l778 1331h125l-778 -1331h-125zM1090 0v80q23 29 43 53.5t61 73.5q98 121 154.5 189.5t84 108.5t34 60.5t6.5 44.5q0 47 -36 78t-96 31q-139 0 -147 -162h-100q6 254 252 254q106 0 171.5 -54.5 t65.5 -144.5q0 -27 -5 -50t-19.5 -51t-40 -62.5t-66.5 -83.5q-14 -18 -34.5 -43t-42 -50.5t-41 -49t-31.5 -40.5q-20 -25 -31.5 -39t-19 -22t-12.5 -13.5t-11 -13.5h366v-94h-505z" />
<glyph unicode="&#xbe;" horiz-adv-x="1689" d="M84 774h98q4 -156 164 -156q78 0 124 41t46 111q0 33 -13.5 60.5t-36 47t-53 31t-65.5 9.5l-22 -3l-19 3l-22 -3v95q14 -2 23 -3t18 -1q74 0 117.5 35.5t43.5 97.5q0 53 -35.5 84.5t-97.5 31.5q-127 0 -145 -135h-96q4 111 68.5 169.5t176.5 58.5q106 0 173 -56.5 t67 -146.5q0 -121 -115 -174q72 -27 107 -77t35 -122q0 -111 -76 -178.5t-199 -67.5q-131 0 -199.5 63.5t-66.5 184.5zM393 0l778 1331h125l-780 -1331h-123zM1030 190v78l344 537h107v-524h145v-91h-143v-198h-109v198h-344zM1143 281h235v378z" />
<glyph unicode="&#xbf;" horiz-adv-x="843" d="M104 -115q0 41 7.5 75t28 68.5t54 73.5t85.5 91q37 37 59 64.5t35.5 54t17.5 55t4 67.5v127h142v-108q0 -66 -4.5 -108t-18.5 -75.5t-42 -68.5t-77 -84q-76 -80 -104.5 -129t-28.5 -101q0 -72 46 -112.5t124 -40.5q92 0 139 46t58 148h127q-6 -162 -92 -245.5t-246 -83.5 q-147 0 -230.5 75.5t-83.5 210.5zM348 852q0 47 36 83t83 36t82 -35t35 -84q0 -51 -33 -84t-86 -33q-49 0 -83 34t-34 83z" />
<glyph unicode="&#xc0;" horiz-adv-x="1159" d="M43 0l471 1374h133l471 -1374h-160l-120 362h-514l-123 -362h-158zM201 1778h207l282 -281h-147zM365 496h430l-215 680z" />
<glyph unicode="&#xc1;" horiz-adv-x="1159" d="M41 0l471 1374h133l471 -1374h-160l-120 362h-514l-123 -362h-158zM362 496h431l-215 680zM467 1497l285 281h204l-340 -281h-149z" />
<glyph unicode="&#xc2;" horiz-adv-x="1159" d="M41 0l471 1374h133l471 -1374h-160l-120 362h-514l-123 -362h-158zM229 1503l267 269h166l264 -269h-142l-206 180l-205 -180h-144zM362 496h431l-215 680z" />
<glyph unicode="&#xc3;" horiz-adv-x="1159" d="M41 0l471 1374h133l471 -1374h-160l-120 362h-514l-123 -362h-158zM252 1552q27 104 72 151.5t116 47.5q33 0 68 -12.5t86 -40.5q33 -18 54.5 -29.5t36.5 -17.5t25.5 -8.5t22.5 -2.5q76 0 101 119l84 -33q-14 -98 -62.5 -151t-122.5 -53q-33 0 -66.5 12t-105.5 51 q-41 25 -69.5 35t-51.5 10q-74 0 -100 -110zM362 496h431l-215 680z" />
<glyph unicode="&#xc4;" horiz-adv-x="1159" d="M41 0l471 1374h133l471 -1374h-160l-120 362h-514l-123 -362h-158zM281 1636q0 51 32.5 84t83.5 33q47 0 81 -33.5t34 -83.5q0 -47 -34 -80.5t-83 -33.5t-81.5 32.5t-32.5 81.5zM362 496h431l-215 680zM645 1636q0 51 34 84t83 33t82 -33.5t33 -83.5q0 -49 -33 -81.5 t-82 -32.5t-83 33.5t-34 80.5z" />
<glyph unicode="&#xc5;" horiz-adv-x="1159" d="M41 0l471 1374h133l471 -1374h-160l-120 362h-514l-123 -362h-158zM362 496h431l-215 680zM389 1655q0 39 15.5 73.5t41 60.5t61.5 40t75 14q37 0 70.5 -15.5t59 -41t41 -60t15.5 -71.5q0 -39 -15.5 -74t-41 -60.5t-60.5 -40t-73 -14.5q-39 0 -73 14.5t-59.5 40t-41 60.5 t-15.5 74zM477 1655q0 -43 30 -72t71 -29q43 0 72.5 30t29.5 71t-29.5 70.5t-70.5 29.5q-43 0 -73 -29.5t-30 -70.5z" />
<glyph unicode="&#xc6;" horiz-adv-x="1744" d="M43 0l782 1366h828v-133h-590v-459h541v-133h-541v-508h594v-133h-752v362h-487l-205 -362h-170zM494 496h411v735z" />
<glyph unicode="&#xc7;" horiz-adv-x="1230" d="M104 682q0 160 40 291t114 223t177.5 143.5t230.5 51.5q117 0 213 -44t155 -126q37 -49 56.5 -102.5t29.5 -131.5h-143q-59 268 -311 268q-92 0 -165 -39.5t-125 -115.5t-80 -181.5t-28 -238.5q0 -131 28 -236.5t80 -179.5t124.5 -113.5t165.5 -39.5q145 0 230 90 t103 262h144q-16 -229 -136 -356t-321 -132l-45 -110q195 -23 195 -174q0 -84 -59.5 -135.5t-155.5 -51.5q-41 0 -74 7.5t-90 29.5v86q47 -16 69.5 -21t44.5 -5q53 0 87 28.5t34 75.5q0 100 -149 100h-31l72 179q-229 39 -354.5 221t-125.5 477z" />
<glyph unicode="&#xc8;" horiz-adv-x="1028" d="M166 0v1366h749v-133h-596v-459h553v-133h-553v-508h611v-133h-764zM195 1778h204l283 -281h-147z" />
<glyph unicode="&#xc9;" horiz-adv-x="1028" d="M176 0v1366h750v-133h-596v-459h553v-133h-553v-508h610v-133h-764zM410 1497l282 281h205l-340 -281h-147z" />
<glyph unicode="&#xca;" horiz-adv-x="1028" d="M176 0v1366h750v-133h-596v-459h553v-133h-553v-508h610v-133h-764zM209 1503l266 269h164l266 -269h-141l-207 180l-205 -180h-143z" />
<glyph unicode="&#xcb;" horiz-adv-x="1028" d="M176 0v1366h750v-133h-596v-459h553v-133h-553v-508h610v-133h-764zM258 1636q0 49 35 83t84 34t80.5 -32.5t31.5 -84.5q0 -49 -31.5 -81.5t-82.5 -32.5q-47 0 -82 33.5t-35 80.5zM625 1636q0 51 33.5 84t82.5 33q47 0 81 -33.5t34 -83.5q0 -47 -34 -80.5t-81 -33.5 q-49 0 -82.5 33.5t-33.5 80.5z" />
<glyph unicode="&#xcc;" horiz-adv-x="503" d="M-61 1778h192l227 -281h-135zM174 0v1366h158v-1366h-158z" />
<glyph unicode="&#xcd;" horiz-adv-x="503" d="M145 1497l230 281h190l-284 -281h-136zM174 0v1366h158v-1366h-158z" />
<glyph unicode="&#xce;" horiz-adv-x="503" d="M-47 1503l217 269h166l217 -269h-135l-164 180l-166 -180h-135zM174 0v1366h158v-1366h-158z" />
<glyph unicode="&#xcf;" horiz-adv-x="503" d="M-8 1636q0 47 32.5 80t81.5 33q47 0 79 -33t32 -80t-32.5 -79.5t-80.5 -32.5q-47 0 -79.5 32.5t-32.5 79.5zM172 0v1366h158v-1366h-158zM285 1636q0 47 33.5 80t80.5 33t79 -33t32 -80t-32 -79.5t-79 -32.5t-80.5 33.5t-33.5 78.5z" />
<glyph unicode="&#xd0;" horiz-adv-x="1282" d="M55 649v129h119v588h215q98 0 170 -3t127 -12.5t97 -24.5t83 -38q145 -80 227.5 -240.5t82.5 -363.5q0 -211 -84 -371.5t-236 -238.5q-43 -23 -85 -37t-95 -22.5t-126 -11.5t-177 -3h-199v649h-119zM328 133h98q82 0 137 3t95 10.5t73 21.5t68 35q104 63 159.5 187 t55.5 294q0 176 -61.5 304t-176.5 190q-33 18 -64.5 28.5t-72.5 16.5t-100.5 8t-149.5 2h-61v-455h323v-129h-323v-516z" />
<glyph unicode="&#xd1;" horiz-adv-x="1316" d="M176 0v1366h166l655 -1137v1137h144v-1366h-168l-651 1135v-1135h-146zM340 1552q25 104 70 151.5t116 47.5q35 0 69 -12.5t85 -40.5q66 -37 91.5 -47.5t49.5 -10.5q76 0 101 119l84 -33q-16 -98 -64.5 -151t-122.5 -53q-33 0 -65.5 12t-104.5 51q-43 25 -71.5 35 t-51.5 10q-72 0 -98 -110z" />
<glyph unicode="&#xd2;" horiz-adv-x="1323" d="M104 684q0 170 46.5 306t136.5 235q156 166 375 166q123 0 225 -51.5t175 -144.5t114 -223t41 -286q0 -176 -45.5 -308t-137.5 -237q-78 -84 -170 -124t-211 -40q-121 0 -221 52.5t-173 145.5t-114 223t-41 286zM268 684q0 -129 28 -234.5t78 -180t121.5 -115.5 t159.5 -41q186 0 292 151.5t106 421.5q0 129 -28 234.5t-79 180.5t-122.5 114.5t-161.5 39.5t-163 -40.5t-124 -115.5t-79 -180.5t-28 -234.5zM317 1778h205l285 -281h-150z" />
<glyph unicode="&#xd3;" horiz-adv-x="1323" d="M104 684q0 170 46.5 306t136.5 235q156 166 375 166q123 0 225 -51.5t175 -144.5t114 -223t41 -286q0 -176 -45.5 -308t-137.5 -237q-78 -84 -170 -124t-211 -40q-121 0 -221 52.5t-173 145.5t-114 223t-41 286zM268 684q0 -129 28 -234.5t78 -180t121.5 -115.5 t159.5 -41q186 0 292 151.5t106 421.5q0 129 -28 234.5t-79 180.5t-122.5 114.5t-161.5 39.5t-163 -40.5t-124 -115.5t-79 -180.5t-28 -234.5zM506 1497l282 281h205l-340 -281h-147z" />
<glyph unicode="&#xd4;" horiz-adv-x="1323" d="M104 684q0 170 46.5 306t136.5 235q156 166 375 166q123 0 225 -51.5t175 -144.5t114 -223t41 -286q0 -176 -45.5 -308t-137.5 -237q-78 -84 -170 -124t-211 -40q-121 0 -221 52.5t-173 145.5t-114 223t-41 286zM268 684q0 -129 28 -234.5t78 -180t121.5 -115.5 t159.5 -41q186 0 292 151.5t106 421.5q0 129 -28 234.5t-79 180.5t-122.5 114.5t-161.5 39.5t-163 -40.5t-124 -115.5t-79 -180.5t-28 -234.5zM313 1503l267 269h163l267 -269h-142l-206 180l-207 -180h-142z" />
<glyph unicode="&#xd5;" horiz-adv-x="1323" d="M104 684q0 170 46.5 306t136.5 235q156 166 375 166q123 0 225 -51.5t175 -144.5t114 -223t41 -286q0 -176 -45.5 -308t-137.5 -237q-78 -84 -170 -124t-211 -40q-121 0 -221 52.5t-173 145.5t-114 223t-41 286zM268 684q0 -129 28 -234.5t78 -180t121.5 -115.5 t159.5 -41q186 0 292 151.5t106 421.5q0 129 -28 234.5t-79 180.5t-122.5 114.5t-161.5 39.5t-163 -40.5t-124 -115.5t-79 -180.5t-28 -234.5zM334 1552q23 104 71 151.5t127 47.5q35 0 67 -11t77 -40q57 -37 82.5 -48.5t52.5 -11.5q80 0 104 119l84 -33q-31 -205 -188 -204 q-72 0 -147 47q-39 23 -60.5 35t-35 18t-21.5 7t-21 1q-88 0 -104 -110z" />
<glyph unicode="&#xd6;" horiz-adv-x="1323" d="M104 684q0 170 46.5 306t136.5 235q156 166 375 166q123 0 225 -51.5t175 -144.5t114 -223t41 -286q0 -176 -45.5 -308t-137.5 -237q-78 -84 -170 -124t-211 -40q-121 0 -221 52.5t-173 145.5t-114 223t-41 286zM268 684q0 -129 28 -234.5t78 -180t121.5 -115.5 t159.5 -41q186 0 292 151.5t106 421.5q0 129 -28 234.5t-79 180.5t-122.5 114.5t-161.5 39.5t-163 -40.5t-124 -115.5t-79 -180.5t-28 -234.5zM362 1636q0 51 34 84t83 33t82 -33.5t33 -83.5q0 -49 -33 -81.5t-82 -32.5t-83 33.5t-34 80.5zM727 1636q0 49 34 83t85 34 q47 0 79.5 -32.5t32.5 -84.5q0 -49 -32.5 -81.5t-81.5 -32.5t-83 33.5t-34 80.5z" />
<glyph unicode="&#xd7;" horiz-adv-x="1091" d="M174 391l295 295l-293 293l78 78l293 -293l293 293l75 -78l-292 -291l292 -295l-77 -78l-293 293l-293 -293z" />
<glyph unicode="&#xd8;" horiz-adv-x="1323" d="M104 684q0 180 50.5 321.5t148.5 235.5q74 72 168 111t195 39q47 0 86 -6.5t78.5 -21.5t80.5 -41t90 -62l80 106h127l-133 -186q72 -104 107 -228.5t35 -281.5q0 -156 -40 -283t-114 -218t-177.5 -141.5t-228.5 -50.5q-49 0 -91 7.5t-82 23t-81 41t-88 62.5l-77 -111 h-125l131 188q-39 68 -66.5 126.5t-43 115.5t-23 118.5t-7.5 135.5zM268 686q0 -106 18.5 -193t57.5 -174l569 822q-100 117 -258 116q-86 0 -156.5 -41.5t-121.5 -117.5t-80 -180.5t-29 -231.5zM406 227q33 -33 60.5 -55t57 -35.5t60 -18.5t69.5 -5q86 0 158 33.5t119 99.5 q59 82 91 192.5t32 239.5q0 225 -78 369z" />
<glyph unicode="&#xd9;" horiz-adv-x="1280" d="M158 559v807h153v-805q0 -78 2 -130t7.5 -87t15.5 -59.5t24 -46.5q39 -59 111 -92t170 -33q113 0 191.5 44t109.5 124q8 20 13.5 41.5t8.5 53.5t4 76t1 109v805h153v-807q0 -82 -1 -133t-4 -85t-10 -57.5t-17 -52.5q-49 -123 -166 -188.5t-283 -65.5t-283.5 66 t-167.5 188q-10 29 -17 52.5t-10 57.5t-4 85t-1 133zM297 1778h205l282 -281h-147z" />
<glyph unicode="&#xda;" horiz-adv-x="1280" d="M158 559v807h153v-805q0 -78 2 -130t7.5 -87t15.5 -59.5t24 -46.5q39 -59 111 -92t170 -33q113 0 191.5 44t109.5 124q8 20 13.5 41.5t8.5 53.5t4 76t1 109v805h153v-807q0 -82 -1 -133t-4 -85t-10 -57.5t-17 -52.5q-49 -123 -166 -188.5t-283 -65.5t-283.5 66 t-167.5 188q-10 29 -17 52.5t-10 57.5t-4 85t-1 133zM492 1497l282 281h205l-340 -281h-147z" />
<glyph unicode="&#xdb;" horiz-adv-x="1280" d="M158 559v807h153v-805q0 -78 2 -130t7.5 -87t15.5 -59.5t24 -46.5q39 -59 111 -92t170 -33q113 0 191.5 44t109.5 124q8 20 13.5 41.5t8.5 53.5t4 76t1 109v805h153v-807q0 -82 -1 -133t-4 -85t-10 -57.5t-17 -52.5q-49 -123 -166 -188.5t-283 -65.5t-283.5 66 t-167.5 188q-10 29 -17 52.5t-10 57.5t-4 85t-1 133zM293 1503l264 269h166l266 -269h-141l-207 180l-207 -180h-141z" />
<glyph unicode="&#xdc;" horiz-adv-x="1280" d="M158 559v807h153v-805q0 -78 2 -130t7.5 -87t15.5 -59.5t24 -46.5q39 -59 111 -92t170 -33q113 0 191.5 44t109.5 124q8 20 13.5 41.5t8.5 53.5t4 76t1 109v805h153v-807q0 -82 -1 -133t-4 -85t-10 -57.5t-17 -52.5q-49 -123 -166 -188.5t-283 -65.5t-283.5 66 t-167.5 188q-10 29 -17 52.5t-10 57.5t-4 85t-1 133zM342 1636q0 51 34 84t83 33t81.5 -33.5t32.5 -83.5q0 -49 -32.5 -81.5t-81.5 -32.5t-83 33.5t-34 80.5zM707 1636q0 49 33.5 83t84.5 34q47 0 80 -32.5t33 -84.5q0 -49 -33 -81.5t-82 -32.5t-82.5 33.5t-33.5 80.5z" />
<glyph unicode="&#xdd;" horiz-adv-x="1048" d="M25 1366h176l325 -639l324 639h176l-426 -793l2 -573h-153l2 573zM383 1497l283 281h204l-340 -281h-147z" />
<glyph unicode="&#xde;" horiz-adv-x="1077" d="M176 0v1366h154v-160h71q78 0 134.5 -2t100.5 -6t78 -11t64 -18q113 -39 177.5 -137t64.5 -235q0 -129 -55.5 -221.5t-157.5 -133.5q-33 -12 -65.5 -21t-75.5 -14.5t-99.5 -7.5t-136.5 -2h-100v-397h-154zM330 530h96q53 0 90 1t65.5 3.5t51 5.5t47.5 9q86 20 132 83.5 t46 164.5q0 90 -37 153.5t-102 89.5q-25 10 -50.5 16.5t-60.5 10.5t-83 5t-115 1h-80v-543z" />
<glyph unicode="&#xdf;" horiz-adv-x="1036" d="M139 0v870q0 84 2 139.5t7.5 94.5t14.5 65.5t23 53.5q41 76 123 116.5t189 40.5q78 0 143.5 -23.5t111.5 -66.5t71.5 -102.5t25.5 -130.5q0 -111 -56.5 -180.5t-175.5 -104.5q324 -61 324 -383q0 -88 -26.5 -161.5t-72.5 -128t-110.5 -84t-140.5 -29.5q-74 0 -152 34v132 q37 -20 71 -28.5t73 -8.5q96 0 153.5 74.5t57.5 197.5q0 156 -101.5 238t-294.5 84v122q12 -2 24.5 -2h16.5q123 0 194 57.5t71 160.5q0 98 -56.5 154t-152.5 56q-70 0 -118 -28.5t-69 -81.5q-8 -20 -13 -41t-8 -48.5t-4 -69.5t-1 -109v-879h-144z" />
<glyph unicode="&#xe0;" horiz-adv-x="974" d="M94 254q0 102 57.5 177t167.5 116q35 12 71 23.5t79 21.5t95 19.5t120 21.5v41q0 111 -44 155.5t-155 44.5q-98 0 -148 -37.5t-67 -119.5h-141q16 139 107.5 209.5t255.5 70.5q121 0 201.5 -41t109.5 -118q14 -37 18 -82t4 -135v-365q0 -59 1 -97t4.5 -64.5t8.5 -48 t13 -46.5h-137q-10 35 -14.5 59.5t-8.5 71.5q-86 -156 -284 -156q-143 0 -228.5 76t-85.5 203zM199 1401h207l210 -281h-118zM242 266q0 -76 52 -123t136 -47q72 0 129 31t88 90q37 68 37 213v96q-121 -20 -206 -45.5t-137 -56.5t-75.5 -70t-23.5 -88z" />
<glyph unicode="&#xe1;" horiz-adv-x="974" d="M94 254q0 102 57.5 177t167.5 116q35 12 71 23.5t79 21.5t95 19.5t120 21.5v41q0 111 -44 155.5t-155 44.5q-98 0 -148 -37.5t-67 -119.5h-141q16 139 107.5 209.5t255.5 70.5q121 0 201.5 -41t109.5 -118q14 -37 18 -82t4 -135v-365q0 -59 1 -97t4.5 -64.5t8.5 -48 t13 -46.5h-137q-10 35 -14.5 59.5t-8.5 71.5q-86 -156 -284 -156q-143 0 -228.5 76t-85.5 203zM242 266q0 -76 52 -123t136 -47q72 0 129 31t88 90q37 68 37 213v96q-121 -20 -206 -45.5t-137 -56.5t-75.5 -70t-23.5 -88zM371 1120l211 281h206l-299 -281h-118z" />
<glyph unicode="&#xe2;" horiz-adv-x="974" d="M94 254q0 102 57.5 177t167.5 116q35 12 71 23.5t79 21.5t95 19.5t120 21.5v41q0 111 -44 155.5t-155 44.5q-98 0 -148 -37.5t-67 -119.5h-141q16 139 107.5 209.5t255.5 70.5q121 0 201.5 -41t109.5 -118q14 -37 18 -82t4 -135v-365q0 -59 1 -97t4.5 -64.5t8.5 -48 t13 -46.5h-137q-10 35 -14.5 59.5t-8.5 71.5q-86 -156 -284 -156q-143 0 -228.5 76t-85.5 203zM178 1126l232 287h165l232 -287h-139l-176 193l-175 -193h-139zM242 266q0 -76 52 -123t136 -47q72 0 129 31t88 90q37 68 37 213v96q-121 -20 -206 -45.5t-137 -56.5t-75.5 -70 t-23.5 -88z" />
<glyph unicode="&#xe3;" horiz-adv-x="974" d="M94 254q0 102 57.5 177t167.5 116q35 12 71 23.5t79 21.5t95 19.5t120 21.5v41q0 111 -44 155.5t-155 44.5q-98 0 -148 -37.5t-67 -119.5h-141q16 139 107.5 209.5t255.5 70.5q121 0 201.5 -41t109.5 -118q14 -37 18 -82t4 -135v-365q0 -59 1 -97t4.5 -64.5t8.5 -48 t13 -46.5h-137q-10 35 -14.5 59.5t-8.5 71.5q-86 -156 -284 -156q-143 0 -228.5 76t-85.5 203zM186 1165q43 213 174 213q55 0 138 -53q53 -35 77.5 -46t47.5 -11q68 0 90 118l84 -20q-12 -104 -57.5 -161.5t-110.5 -57.5q-33 0 -68 13.5t-82 43.5q-51 33 -74.5 43t-46.5 10 q-63 0 -90 -112zM242 266q0 -76 52 -123t136 -47q72 0 129 31t88 90q37 68 37 213v96q-121 -20 -206 -45.5t-137 -56.5t-75.5 -70t-23.5 -88z" />
<glyph unicode="&#xe4;" horiz-adv-x="974" d="M94 254q0 102 57.5 177t167.5 116q35 12 71 23.5t79 21.5t95 19.5t120 21.5v41q0 111 -44 155.5t-155 44.5q-98 0 -148 -37.5t-67 -119.5h-141q16 139 107.5 209.5t255.5 70.5q121 0 201.5 -41t109.5 -118q14 -37 18 -82t4 -135v-365q0 -59 1 -97t4.5 -64.5t8.5 -48 t13 -46.5h-137q-10 35 -14.5 59.5t-8.5 71.5q-86 -156 -284 -156q-143 0 -228.5 76t-85.5 203zM213 1270q0 47 31 76.5t78 29.5t76.5 -30.5t29.5 -75.5t-31.5 -77t-74.5 -32q-45 0 -77 32t-32 77zM242 266q0 -76 52 -123t136 -47q72 0 129 31t88 90q37 68 37 213v96 q-121 -20 -206 -45.5t-137 -56.5t-75.5 -70t-23.5 -88zM561 1270q0 47 32 76.5t79 29.5q45 0 74.5 -29.5t29.5 -76.5t-30.5 -78t-75.5 -31t-77 32t-32 77z" />
<glyph unicode="&#xe5;" horiz-adv-x="974" d="M94 254q0 102 57.5 177t167.5 116q35 12 71 23.5t79 21.5t95 19.5t120 21.5v41q0 111 -44 155.5t-155 44.5q-98 0 -148 -37.5t-67 -119.5h-141q16 139 107.5 209.5t255.5 70.5q121 0 201.5 -41t109.5 -118q14 -37 18 -82t4 -135v-365q0 -59 1 -97t4.5 -64.5t8.5 -48 t13 -46.5h-137q-10 35 -14.5 59.5t-8.5 71.5q-86 -156 -284 -156q-143 0 -228.5 76t-85.5 203zM242 266q0 -76 52 -123t136 -47q72 0 129 31t88 90q37 68 37 213v96q-121 -20 -206 -45.5t-137 -56.5t-75.5 -70t-23.5 -88zM307 1280q0 39 15.5 74t41 60.5t61.5 40.5t75 15 q37 0 70.5 -15t59 -40.5t41 -60.5t15.5 -72q0 -39 -15.5 -73.5t-41 -60.5t-59 -41t-72.5 -15t-73 15t-60.5 41t-42 60.5t-15.5 71.5zM395 1280q0 -41 31 -70.5t72 -29.5t70.5 30.5t29.5 71.5t-29.5 70.5t-70.5 29.5t-72 -29.5t-31 -72.5z" />
<glyph unicode="&#xe6;" horiz-adv-x="1579" d="M96 242q0 92 60.5 167.5t165.5 116.5q74 29 156.5 40.5t195.5 11.5v61q0 68 -9.5 113t-31 72.5t-57 38.5t-89.5 11q-178 0 -223 -169h-137q20 141 114.5 216.5t250.5 75.5q240 0 299 -168q59 90 130.5 129t172.5 39q109 0 192.5 -50t134.5 -144q18 -33 30.5 -67t20 -71.5 t11.5 -86t4 -113.5h-666q4 -180 77 -273.5t214 -93.5q80 0 134 35t91 113l133 -17q-31 -119 -127 -186.5t-231 -67.5q-123 0 -215 54.5t-145 156.5q-57 -111 -138.5 -161t-199.5 -50q-70 0 -129.5 19.5t-100.5 54.5t-64.5 84t-23.5 109zM244 248q0 -68 50 -110t134 -42 q246 0 246 303v66h-27h-18q-176 0 -280.5 -58.5t-104.5 -158.5zM827 578h502q-10 145 -71.5 222t-167.5 77q-104 0 -173 -79t-90 -220z" />
<glyph unicode="&#xe7;" horiz-adv-x="952" d="M92 483q0 119 29 214.5t82 162t130 102t171 35.5q154 0 243 -87t105 -255h-143q-18 119 -66.5 169t-142.5 50q-123 0 -191.5 -103t-68.5 -286q0 -182 70.5 -285.5t193.5 -103.5q188 0 213 238h143q-10 -170 -101 -263.5t-249 -97.5l-43 -88q176 -23 176 -153 q0 -76 -54 -123t-140 -47q-41 0 -74 7t-80 28v77l27 -8q31 -10 44 -12t40 -2q109 0 108 94q0 49 -38 71.5t-128 22.5l68 144q-66 16 -105 37.5t-78 60.5q-141 141 -141 401z" />
<glyph unicode="&#xe8;" horiz-adv-x="995" d="M92 475q0 119 30 215t84 165t132 105.5t172 36.5q90 0 161.5 -34.5t124 -99t80 -157t27.5 -204.5v-15.5t-2 -25.5h-661q4 -180 74.5 -271.5t205.5 -91.5q82 0 133.5 33t91.5 115l134 -17q-90 -254 -361 -254q-98 0 -177 35t-134 99.5t-85 157.5t-30 208zM217 1401h205 l213 -281h-121zM244 573h510q-12 147 -76 225.5t-174 78.5q-217 0 -260 -304z" />
<glyph unicode="&#xe9;" horiz-adv-x="995" d="M92 475q0 119 30 215t84 165t132 105.5t172 36.5q90 0 161.5 -34.5t124 -99t80 -157t27.5 -204.5v-15.5t-2 -25.5h-661q4 -180 74.5 -271.5t205.5 -91.5q82 0 133.5 33t91.5 115l134 -17q-90 -254 -361 -254q-98 0 -177 35t-134 99.5t-85 157.5t-30 208zM244 573h510 q-12 147 -76 225.5t-174 78.5q-217 0 -260 -304zM389 1120l213 281h205l-299 -281h-119z" />
<glyph unicode="&#xea;" horiz-adv-x="995" d="M92 475q0 119 30 215t84 165t132 105.5t172 36.5q90 0 161.5 -34.5t124 -99t80 -157t27.5 -204.5v-15.5t-2 -25.5h-661q4 -180 74.5 -271.5t205.5 -91.5q82 0 133.5 33t91.5 115l134 -17q-90 -254 -361 -254q-98 0 -177 35t-134 99.5t-85 157.5t-30 208zM195 1126 l231 287h166l231 -287h-139l-174 193l-176 -193h-139zM244 573h510q-12 147 -76 225.5t-174 78.5q-217 0 -260 -304z" />
<glyph unicode="&#xeb;" horiz-adv-x="995" d="M92 475q0 119 30 215t84 165t132 105.5t172 36.5q90 0 161.5 -34.5t124 -99t80 -157t27.5 -204.5v-15.5t-2 -25.5h-661q4 -180 74.5 -271.5t205.5 -91.5q82 0 133.5 33t91.5 115l134 -17q-90 -254 -361 -254q-98 0 -177 35t-134 99.5t-85 157.5t-30 208zM229 1270 q0 47 31 76.5t78 29.5q45 0 75.5 -30.5t30.5 -75.5t-31.5 -77t-76.5 -32q-43 0 -75 32t-32 77zM244 573h510q-12 147 -76 225.5t-174 78.5q-217 0 -260 -304zM578 1270q0 47 30.5 76.5t77.5 29.5t77 -29.5t30 -76.5q0 -45 -31 -77t-76 -32t-76.5 32t-31.5 77z" />
<glyph unicode="&#xec;" horiz-adv-x="452" d="M-33 1401h193l164 -281h-113zM150 0v971h151v-971h-151z" />
<glyph unicode="&#xed;" horiz-adv-x="452" d="M129 1120l164 281h192l-243 -281h-113zM150 0v971h151v-971h-151z" />
<glyph unicode="&#xee;" horiz-adv-x="452" d="M-41 1126l184 287h164l185 -287h-132l-135 193l-133 -193h-133zM150 0v971h151v-971h-151z" />
<glyph unicode="&#xef;" horiz-adv-x="450" d="M-25 1270q0 47 31 76.5t78 29.5t76.5 -29.5t29.5 -76.5q0 -45 -31.5 -77t-74.5 -32q-45 0 -77 32t-32 77zM150 0v971h151v-971h-151zM260 1270q0 47 31 76.5t78 29.5q45 0 75.5 -30.5t30.5 -75.5t-31.5 -77t-76.5 -32t-76 31t-31 78z" />
<glyph unicode="&#xf0;" horiz-adv-x="1032" d="M92 485q0 113 30 206t83 161t128 104.5t165 36.5q41 0 61.5 -6t52.5 -29l-127 177l-139 -80l-61 78l149 86l-88 112l76 62l110 -119l142 78l61 -74l-143 -82q45 -51 94 -113.5t90 -117.5q45 -63 77 -120t51.5 -111t27.5 -111.5t8 -122.5q0 -119 -29.5 -215.5t-85 -165 t-132.5 -106.5t-173 -38q-94 0 -173 37t-136 104.5t-88 162t-31 206.5zM240 485q0 -86 19.5 -157.5t56 -122.5t88 -79t112.5 -28t112.5 29t87.5 79t56.5 121.5t20.5 157.5t-19.5 158t-54.5 123t-85.5 79.5t-109.5 28.5q-131 0 -207.5 -104t-76.5 -285z" />
<glyph unicode="&#xf1;" horiz-adv-x="1032" d="M125 971h137q10 -31 15.5 -62.5t5.5 -79.5q98 168 292 168q102 0 174 -41t105 -116q10 -25 16.5 -44.5t9.5 -49t4 -73.5t1 -116v-557h-144v549q0 55 -1 91t-4 60.5t-8 42t-13 35.5q-47 92 -168 92q-66 0 -122 -31.5t-91 -88.5q-23 -39 -33 -88.5t-10 -118.5v-543h-144 v641v136t-2 82t-7 55.5t-13 56.5zM190 1165q43 213 175 213q57 0 139 -53q51 -35 76.5 -46t48.5 -11q66 0 90 118l84 -20q-14 -104 -59.5 -161.5t-110.5 -57.5q-31 0 -67 14.5t-83 42.5q-51 33 -73.5 43t-44.5 10q-66 0 -91 -112z" />
<glyph unicode="&#xf2;" horiz-adv-x="1032" d="M92 494q0 111 32 202.5t88 159.5t134 104.5t170 36.5q94 0 172 -36.5t134.5 -104.5t87 -162t30.5 -209q0 -113 -30.5 -207t-87 -161.5t-134.5 -104.5t-172 -37t-173 38t-134 105.5t-86 163t-31 212.5zM221 1401h205l213 -281h-121zM240 492q0 -88 19.5 -161t55 -125 t87 -80t114.5 -28q61 0 112.5 28t88.5 79t56.5 122.5t19.5 157.5q0 88 -19.5 160t-56.5 123t-88.5 78.5t-112.5 27.5t-112.5 -27.5t-87 -78.5t-56 -120.5t-20.5 -155.5z" />
<glyph unicode="&#xf3;" horiz-adv-x="1032" d="M92 494q0 111 32 202.5t88 159.5t134 104.5t170 36.5q94 0 172 -36.5t134.5 -104.5t87 -162t30.5 -209q0 -113 -30.5 -207t-87 -161.5t-134.5 -104.5t-172 -37t-173 38t-134 105.5t-86 163t-31 212.5zM240 492q0 -88 19.5 -161t55 -125t87 -80t114.5 -28q61 0 112.5 28 t88.5 79t56.5 122.5t19.5 157.5q0 88 -19.5 160t-56.5 123t-88.5 78.5t-112.5 27.5t-112.5 -27.5t-87 -78.5t-56 -120.5t-20.5 -155.5zM399 1120l211 281h205l-297 -281h-119z" />
<glyph unicode="&#xf4;" horiz-adv-x="1032" d="M92 494q0 111 32 202.5t88 159.5t134 104.5t170 36.5q94 0 172 -36.5t134.5 -104.5t87 -162t30.5 -209q0 -113 -30.5 -207t-87 -161.5t-134.5 -104.5t-172 -37t-173 38t-134 105.5t-86 163t-31 212.5zM203 1126l231 287h164l231 -287h-137l-176 193l-174 -193h-139z M240 492q0 -88 19.5 -161t55 -125t87 -80t114.5 -28q61 0 112.5 28t88.5 79t56.5 122.5t19.5 157.5q0 88 -19.5 160t-56.5 123t-88.5 78.5t-112.5 27.5t-112.5 -27.5t-87 -78.5t-56 -120.5t-20.5 -155.5z" />
<glyph unicode="&#xf5;" horiz-adv-x="1032" d="M92 494q0 111 32 202.5t88 159.5t134 104.5t170 36.5q94 0 172 -36.5t134.5 -104.5t87 -162t30.5 -209q0 -113 -30.5 -207t-87 -161.5t-134.5 -104.5t-172 -37t-173 38t-134 105.5t-86 163t-31 212.5zM225 1165q43 213 174 213q57 0 138 -53q53 -35 78.5 -46t48.5 -11 q66 0 90 118l84 -20q-14 -104 -59.5 -161.5t-110.5 -57.5q-59 0 -150 57q-51 33 -74.5 43t-44.5 10q-66 0 -90 -112zM240 492q0 -88 19.5 -161t55 -125t87 -80t114.5 -28q61 0 112.5 28t88.5 79t56.5 122.5t19.5 157.5q0 88 -19.5 160t-56.5 123t-88.5 78.5t-112.5 27.5 t-112.5 -27.5t-87 -78.5t-56 -120.5t-20.5 -155.5z" />
<glyph unicode="&#xf6;" horiz-adv-x="1032" d="M92 494q0 111 32 202.5t88 159.5t134 104.5t170 36.5q94 0 172 -36.5t134.5 -104.5t87 -162t30.5 -209q0 -113 -30.5 -207t-87 -161.5t-134.5 -104.5t-172 -37t-173 38t-134 105.5t-86 163t-31 212.5zM233 1270q0 47 32 76.5t79 29.5q45 0 75 -29.5t30 -76.5 q0 -45 -31 -77t-76 -32t-77 32t-32 77zM240 492q0 -88 19.5 -161t55 -125t87 -80t114.5 -28q61 0 112.5 28t88.5 79t56.5 122.5t19.5 157.5q0 88 -19.5 160t-56.5 123t-88.5 78.5t-112.5 27.5t-112.5 -27.5t-87 -78.5t-56 -120.5t-20.5 -155.5zM582 1270q0 45 31.5 75.5 t78.5 30.5t76 -29.5t29 -76.5t-31 -78t-76 -31q-43 0 -75.5 33t-32.5 76z" />
<glyph unicode="&#xf7;" horiz-adv-x="1091" d="M109 631v110h874v-110h-874zM446 397q0 41 30 71t71 30t69.5 -30t28.5 -71t-29.5 -69.5t-70.5 -28.5t-70 28.5t-29 69.5zM446 967q0 41 30 70.5t71 29.5t69.5 -29.5t28.5 -70.5t-29.5 -70t-70.5 -29t-70 29t-29 70z" />
<glyph unicode="&#xf8;" horiz-adv-x="1032" d="M55 0l123 154q-43 70 -64.5 148.5t-21.5 174.5q0 115 32 211t88 165t134 107.5t172 38.5q41 0 75 -5t65.5 -18t64.5 -33.5t70 -51.5l69 80h115l-123 -152l10 -18q23 -41 37 -77t23.5 -71t12.5 -73.5t3 -85.5q0 -115 -30.5 -210.5t-88 -164t-135.5 -106.5t-174 -38 q-78 0 -149.5 28t-118.5 75l-70 -78h-119zM240 473q0 -57 8 -104t31 -101l426 520q-47 49 -89.5 69t-95.5 20q-61 0 -113.5 -30t-89 -83t-57 -127t-20.5 -164zM332 180q27 -37 76 -59.5t104 -22.5q63 0 114.5 29t88.5 81t57.5 126t20.5 162q0 61 -8.5 109t-28.5 95z" />
<glyph unicode="&#xf9;" horiz-adv-x="1017" d="M145 377v594h144v-594q0 -82 8 -127t29 -74q51 -72 161 -72q133 0 199 113q23 35 31 83t8 120v551h143v-676v-125t2 -74.5t7.5 -49t13.5 -46.5h-141q-10 33 -14.5 61.5t-6.5 67.5q-43 -82 -103.5 -118t-154.5 -36q-98 0 -173 41t-114 115q-23 41 -31 93t-8 153zM215 1401 h205l213 -281h-121z" />
<glyph unicode="&#xfa;" horiz-adv-x="1017" d="M145 377v594h144v-594q0 -82 8 -127t29 -74q51 -72 161 -72q133 0 199 113q23 35 31 83t8 120v551h143v-676v-125t2 -74.5t7.5 -49t13.5 -46.5h-141q-10 33 -14.5 61.5t-6.5 67.5q-43 -82 -103.5 -118t-154.5 -36q-98 0 -173 41t-114 115q-23 41 -31 93t-8 153zM377 1120 l211 281h207l-299 -281h-119z" />
<glyph unicode="&#xfb;" horiz-adv-x="1017" d="M145 377v594h144v-594q0 -82 8 -127t29 -74q51 -72 161 -72q133 0 199 113q23 35 31 83t8 120v551h143v-676v-125t2 -74.5t7.5 -49t13.5 -46.5h-141q-10 33 -14.5 61.5t-6.5 67.5q-43 -82 -103.5 -118t-154.5 -36q-98 0 -173 41t-114 115q-23 41 -31 93t-8 153zM195 1126 l231 287h164l233 -287h-139l-176 193l-174 -193h-139z" />
<glyph unicode="&#xfc;" horiz-adv-x="1017" d="M145 377v594h144v-594q0 -82 8 -127t29 -74q51 -72 161 -72q133 0 199 113q23 35 31 83t8 120v551h143v-676v-125t2 -74.5t7.5 -49t13.5 -46.5h-141q-10 33 -14.5 61.5t-6.5 67.5q-43 -82 -103.5 -118t-154.5 -36q-98 0 -173 41t-114 115q-23 41 -31 93t-8 153zM225 1270 q0 45 32 75.5t79 30.5q45 0 74.5 -29.5t29.5 -76.5t-30.5 -78t-75.5 -31q-43 0 -76 33t-33 76zM575 1270q0 47 31 76.5t78 29.5q45 0 76 -30.5t31 -75.5t-32 -77t-77 -32t-76 32t-31 77z" />
<glyph unicode="&#xfd;" horiz-adv-x="897" d="M33 971h153l265 -809l272 809h149l-319 -903q-33 -96 -55.5 -155.5t-40 -96.5t-34.5 -61.5t-40 -49.5q-109 -115 -283 -115h-18t-27 2v127q70 0 117 10.5t81 39t61.5 82t56.5 139.5zM328 1120l213 281h204l-296 -281h-121z" />
<glyph unicode="&#xfe;" horiz-adv-x="1040" d="M152 -403v1775h143v-545q53 92 114.5 131t155.5 39q86 0 158 -36.5t122 -104.5t77.5 -163t27.5 -210t-26.5 -208t-75.5 -159.5t-119 -103.5t-154 -37q-92 0 -159.5 38t-120.5 122v-538h-143zM293 485q0 -174 71.5 -279.5t190.5 -105.5q106 0 164 76q84 115 84 305 q0 98 -24.5 181t-69.5 141q-58 69 -156 69q-121 0 -190.5 -103t-69.5 -284z" />
<glyph unicode="&#xff;" horiz-adv-x="897" d="M33 971h153l265 -809l272 809h149l-319 -903q-33 -96 -55.5 -155.5t-40 -96.5t-34.5 -61.5t-40 -49.5q-109 -115 -283 -115h-18t-27 2v127q70 0 117 10.5t81 39t61.5 82t56.5 139.5zM170 1270q0 47 31 76.5t78 29.5t76.5 -29.5t29.5 -76.5q0 -45 -30.5 -77t-75.5 -32 t-77 32t-32 77zM518 1270q0 45 32 75.5t79 30.5q45 0 74.5 -29.5t29.5 -76.5t-30.5 -78t-75.5 -31q-43 0 -76 33t-33 76z" />
<glyph unicode="&#x152;" horiz-adv-x="1904" d="M104 682q0 160 41 290t115 223t178.5 144.5t231.5 51.5q123 0 216 -46.5t173 -150.5v172h743v-133h-592v-459h547v-133h-547v-508h605v-133h-756v174q-43 -55 -85 -92t-88 -60.5t-99.5 -34t-118.5 -10.5q-127 0 -231.5 50.5t-178.5 142.5t-114 222t-40 290zM268 680 q0 -147 39 -266t113 -201q90 -100 244 -100q92 0 164.5 38.5t124 112.5t78 179.5t26.5 238.5q0 129 -28 235.5t-78 181.5t-121.5 115.5t-159.5 40.5q-92 0 -166 -40.5t-126 -115.5t-81 -181.5t-29 -237.5z" />
<glyph unicode="&#x153;" horiz-adv-x="1687" d="M92 485q0 115 31 209t87 162t135 104.5t175 36.5q117 0 199 -53t139 -166q66 115 146.5 167t197.5 52q221 0 326 -202q68 -129 67 -281v-25.5t-2 -35.5h-663q6 -174 77.5 -264.5t206.5 -90.5q168 0 230 150l133 -19q-88 -254 -360 -254q-123 0 -211 51.5t-150 161.5 q-66 -115 -145.5 -164t-192.5 -49q-94 0 -173 37t-135 104.5t-87 162t-31 206.5zM240 483q0 -86 19.5 -156.5t56 -121.5t87 -79t111.5 -28q123 0 195.5 104.5t72.5 282.5q0 86 -19.5 158t-54 123t-83 79.5t-107.5 28.5q-127 0 -202.5 -106t-75.5 -285zM934 563h506 q-6 150 -70.5 232t-175.5 82q-109 0 -175.5 -80t-84.5 -234z" />
<glyph unicode="&#x178;" horiz-adv-x="1048" d="M25 1366h176l327 -639l322 639h176l-426 -793l2 -573h-153l2 573zM225 1636q0 47 36 83t83 36q45 0 80 -36t35 -83t-34 -80.5t-83 -33.5q-47 0 -82 33.5t-35 80.5zM592 1636q0 49 35 84t82 35q45 0 80.5 -36t35.5 -83t-34.5 -80.5t-83.5 -33.5q-47 0 -81 33.5t-34 80.5z " />
<glyph unicode="&#x2c6;" d="M199 1126l231 287h164l233 -287h-139l-176 193l-174 -193h-139z" />
<glyph unicode="&#x2dc;" d="M207 1165q41 213 174 213q57 0 137 -53q53 -35 79 -46t48 -11q66 0 90 118l84 -20q-14 -104 -59 -161.5t-111 -57.5q-59 0 -149 57q-51 33 -75 43t-46 10q-63 0 -88 -112z" />
<glyph unicode="&#x2000;" horiz-adv-x="921" />
<glyph unicode="&#x2001;" horiz-adv-x="1843" />
<glyph unicode="&#x2002;" horiz-adv-x="921" />
<glyph unicode="&#x2003;" horiz-adv-x="1843" />
<glyph unicode="&#x2004;" horiz-adv-x="614" />
<glyph unicode="&#x2005;" horiz-adv-x="460" />
<glyph unicode="&#x2006;" horiz-adv-x="307" />
<glyph unicode="&#x2007;" horiz-adv-x="307" />
<glyph unicode="&#x2008;" horiz-adv-x="230" />
<glyph unicode="&#x2009;" horiz-adv-x="368" />
<glyph unicode="&#x200a;" horiz-adv-x="102" />
<glyph unicode="&#x2010;" horiz-adv-x="561" d="M0 459v112h561v-112h-561z" />
<glyph unicode="&#x2011;" horiz-adv-x="561" d="M0 459v112h561v-112h-561z" />
<glyph unicode="&#x2012;" horiz-adv-x="561" d="M0 459v112h561v-112h-561z" />
<glyph unicode="&#x2013;" d="M143 459v112h738v-112h-738z" />
<glyph unicode="&#x2014;" horiz-adv-x="1177" d="M0 459v112h1178v-112h-1178z" />
<glyph unicode="&#x2018;" horiz-adv-x="456" d="M115 1077q0 74 36.5 154t108.5 158h125q-55 -51 -97 -119t-48 -119h14q45 0 75.5 -30.5t30.5 -78.5q0 -47 -33.5 -80.5t-84.5 -33.5q-57 0 -92 42t-35 107z" />
<glyph unicode="&#x2019;" horiz-adv-x="464" d="M82 928q59 57 99 122.5t46 116.5h-16h-6q-35 -2 -67 31t-32 76q0 49 35 83t84 34q55 0 91 -43t36 -109q0 -145 -145 -311h-125z" />
<glyph unicode="&#x201a;" horiz-adv-x="464" d="M82 -240q59 55 99 122t46 116h-16q-43 0 -74 30.5t-31 77.5q0 49 34 82t85 33q57 0 92 -42t35 -107q0 -145 -145 -312h-125z" />
<glyph unicode="&#x201c;" horiz-adv-x="776" d="M115 1077q0 74 36.5 154t108.5 158h125q-55 -51 -97 -119t-48 -119h14q45 0 75.5 -30.5t30.5 -78.5q0 -47 -33.5 -80.5t-84.5 -33.5q-57 0 -92 42t-35 107zM432 1077q0 72 39 154t107 158h124q-55 -53 -96 -120t-47 -118h14q45 0 76 -32t31 -77q0 -47 -35 -80.5 t-86 -33.5q-55 0 -91 42t-36 107z" />
<glyph unicode="&#x201d;" horiz-adv-x="796" d="M72 928q59 57 99 122.5t46 116.5q-57 0 -89 28t-32 79q0 49 35 83t84 34q55 0 91 -43t36 -109q0 -141 -145 -311h-125zM412 928q59 59 98 122.5t45 116.5h-14h-6q-18 -2 -36 6.5t-32 23.5t-23.5 35.5t-9.5 41.5q0 47 36 82t83 35q57 0 92 -42t35 -110q0 -74 -34 -148.5 t-109 -162.5h-125z" />
<glyph unicode="&#x201e;" horiz-adv-x="796" d="M72 -240q59 55 99 121t46 117h-16q-43 0 -74 30.5t-31 77.5q0 49 34 82t85 33q57 0 92 -42t35 -107q0 -141 -145 -312h-125zM412 -240q59 55 98 121t45 117h-14q-43 0 -75 31.5t-32 76.5q0 47 35 81t84 34q59 0 93 -41t34 -108q0 -76 -34 -150t-109 -162h-125z" />
<glyph unicode="&#x2022;" horiz-adv-x="1366" d="M401 696q0 57 21.5 109.5t62.5 93.5q43 43 88 60.5t115 17.5q121 0 193 -78q41 -41 64.5 -96t23.5 -107q0 -57 -23.5 -108t-62.5 -91t-91.5 -63.5t-107.5 -23.5q-57 0 -109.5 22.5t-90.5 61t-60.5 91t-22.5 111.5z" />
<glyph unicode="&#x2026;" horiz-adv-x="1419" d="M143 96q0 49 35 84t84 35t83 -35t34 -84q0 -51 -33 -83.5t-84 -32.5q-49 0 -84 33.5t-35 82.5zM592 96q0 49 35 84t84 35q47 0 81.5 -35t34.5 -84t-33.5 -82.5t-84.5 -33.5q-49 0 -83 33.5t-34 82.5zM1038 96q0 47 36 83t85 36q47 0 81 -34t34 -85t-33 -83.5t-84 -32.5 q-49 0 -84 34.5t-35 81.5z" />
<glyph unicode="&#x202f;" horiz-adv-x="368" />
<glyph unicode="&#x2039;" horiz-adv-x="493" d="M70 477l184 494h115l-158 -494l158 -477h-115z" />
<glyph unicode="&#x203a;" horiz-adv-x="493" d="M125 0l158 494l-158 477h115l184 -477l-184 -494h-115z" />
<glyph unicode="&#x205f;" horiz-adv-x="460" />
<glyph unicode="&#x20ac;" horiz-adv-x="1116" d="M33 510l45 106h102v31v43.5t4 54.5h-151l45 107h117q43 254 175 388t339 134q117 0 224 -47t179 -129l-65 -143q-78 102 -160 147t-180 45q-141 0 -229.5 -100t-123.5 -295h600l-49 -107h-563q-2 -14 -2 -28.5v-40.5v-33.5t2 -26.5h506l-49 -106h-449q43 -397 365 -397 q72 0 140.5 23.5t123.5 64.5q39 29 64.5 61.5t60.5 91.5v-202q-86 -88 -186.5 -129t-227.5 -41q-223 0 -349 133t-153 395h-155z" />
<glyph unicode="&#x2122;" horiz-adv-x="1595" d="M20 1274v92h555v-92h-221v-727h-110v727h-224zM692 547v819h160l246 -688l245 688h158v-819h-106v676l-244 -676h-109l-243 676v-676h-107z" />
<glyph unicode="&#x25fc;" horiz-adv-x="972" d="M0 0v973h973v-973h-973z" />
</font>
</defs>
</svg>
